<svg id="Capa_1" data-name="Capa 1" xmlns="http://www.w3.org/2000/svg" viewBox="0 0 94.9 96.48"><defs><style>.cls-1{fill:#bd1c27;}.cls-2{fill:#c5171b;}.cls-3{fill:#d3252a;}.cls-4{fill:#b7252b;}.cls-5{fill:#b5acc0;}.cls-6{fill:#d0202c;}.cls-7{fill:#a49cb4;}.cls-8{fill:#8191bd;}.cls-9{fill:#b799b4;}.cls-10{fill:#d398af;}.cls-11{fill:#e5c2d8;}.cls-12{fill:#cd161d;}.cls-13{fill:#c11e28;}.cls-14{fill:#c8bcd2;}.cls-15{fill:#d2bdd7;}.cls-16{fill:#a69db4;}.cls-17{fill:#cb2d34;}.cls-18{fill:#be1421;}.cls-19{fill:#a92535;}.cls-20{fill:#b89fb7;}.cls-21{fill:#823645;}.cls-22{fill:#8e242d;}.cls-23{fill:#fec4c1;}.cls-24{fill:#fddada;}.cls-25{fill:#a51d22;}.cls-26{fill:#7a1527;}.cls-27{fill:#fbd1d4;}.cls-28{fill:#b32125;}.cls-29{fill:#fcc3c6;}.cls-30{fill:#dd0f1c;}.cls-31{fill:#b01926;}.cls-32{fill:#530911;}.cls-33{fill:#cbb9c9;}.cls-34{fill:#b2222d;}.cls-35{fill:#f2070e;}.cls-36{fill:#fcd9db;}.cls-37{fill:#da1d24;}.cls-38{fill:#feccc8;}.cls-39{fill:#feaeb0;}.cls-40{fill:#962331;}.cls-41{fill:#d02835;}.cls-42{fill:#ef9094;}.cls-43{fill:#50030b;}.cls-44{fill:#4a0a21;}.cls-45{fill:#81202b;}.cls-46{fill:#8c2733;}.cls-47{fill:#751926;}.cls-48{fill:#050a05;}.cls-49{fill:#1c0c11;}.cls-50{fill:#bd232e;}.cls-51{fill:#c9232d;}.cls-52{fill:#afbdc5;}.cls-53{fill:#c70f13;}.cls-54{fill:#a6b2c7;}.cls-55{fill:#f3b2b7;}.cls-56{fill:#fed9e8;}.cls-57{fill:#fec0c9;}.cls-58{fill:#efa7ad;}.cls-59{fill:#ab0d1c;}.cls-60{fill:#fecacc;}.cls-61{fill:#d42c39;}.cls-62{fill:#f1b2c1;}.cls-63{fill:#b2a8b5;}.cls-64{fill:#bd222b;}.cls-65{fill:#d7b2c6;}.cls-66{fill:#020802;}.cls-67{fill:#cf1c29;}.cls-68{fill:#c32329;}.cls-69{fill:#ae3d3f;}.cls-70{fill:#a43138;}.cls-71{fill:#c02129;}.cls-72{fill:#580004;}.cls-73{fill:#a8101c;}.cls-74{fill:#ac1c26;}.cls-75{fill:#a02930;}.cls-76{fill:#9c1f24;}.cls-77{fill:#b32936;}.cls-78{fill:#921826;}.cls-79{fill:#eea0a8;}.cls-80{fill:#8b3c47;}.cls-81{fill:#fdc3c9;}.cls-82{fill:#973f50;}.cls-83{fill:#cd1d23;}.cls-84{fill:#fac8d1;}.cls-85{fill:#020202;}.cls-86{fill:#9e3037;}.cls-87{fill:#ba232b;}.cls-88{fill:#d4131c;}.cls-89{fill:#e1afb2;}.cls-90{fill:#510002;}.cls-91{fill:#b82534;}.cls-92{fill:#a32e35;}.cls-93{fill:#681315;}.cls-94{fill:#fec5cf;}.cls-95{fill:#b12424;}.cls-96{fill:#8c2728;}.cls-97{fill:#df101b;}.cls-98{fill:#c91d2a;}.cls-99{fill:#2d0506;}.cls-100{fill:#a82227;}.cls-101{fill:#490e0d;}.cls-102{fill:#dd0d0f;}.cls-103{fill:#fec3c3;}.cls-104{fill:#c30c14;}.cls-105{fill:#890202;}.cls-106{fill:#a21e2b;}.cls-107{fill:#923244;}.cls-108{fill:#c4404b;}.cls-109{fill:#fec6c9;}.cls-110{fill:#fee8e9;}.cls-111{fill:#862a32;}.cls-112{fill:#c81f2a;}.cls-113{fill:#540f1b;}.cls-114{fill:#be2023;}.cls-115{fill:#640d13;}.cls-116{fill:#ecbdc4;}.cls-117{fill:#010101;}.cls-118{fill:#0a0d0a;}.cls-119{fill:#1d0505;}.cls-120{fill:#080704;}.cls-121{fill:#e6e9e9;}.cls-122{fill:#a4a69e;}.cls-123{fill:#878c88;}.cls-124{fill:#0a0f0b;}.cls-125{fill:#d7d9d4;}.cls-126{fill:#b3b7b4;}.cls-127{fill:#bac3cd;}.cls-128{fill:#bdc6cd;}.cls-129{fill:#b3b3cb;}.cls-130{fill:#9e3031;}.cls-131{fill:#b72e36;}.cls-132{fill:#740410;}.cls-133{fill:#d2040c;}.cls-134{fill:#610309;}.cls-135{fill:#fad1d1;}.cls-136{fill:#9e3136;}.cls-137{fill:#bf8481;}.cls-138{fill:#d6a09e;}.cls-139{fill:#5a0a0b;}.cls-140{fill:#aa2b3b;}.cls-141{fill:#911e2c;}.cls-142{fill:#f5ccce;}.cls-143{fill:#050606;}.cls-144{fill:#a5a595;}.cls-145{fill:#76787a;}.cls-146{fill:#8d9087;}.cls-147{fill:#d7c5a9;}.cls-148{fill:#6c869c;}.cls-149{fill:#7b91a7;}.cls-150{fill:#eddabb;}.cls-151{fill:#828b89;}.cls-152{fill:#404e60;}.cls-153{fill:#8b928c;}.cls-154{fill:#6f7c7e;}.cls-155{fill:#d4d7d8;}.cls-156{fill:#8facc0;}.cls-157{fill:#ccc0a2;}.cls-158{fill:#1b120a;}.cls-159{fill:#1a2836;}.cls-160{fill:#040f1f;}.cls-161{fill:#7c909a;}.cls-162{fill:#bebba7;}.cls-163{fill:#d1d1d0;}.cls-164{fill:#651a21;}.cls-165{fill:#587081;}.cls-166{fill:#631517;}.cls-167{fill:#7e8c9b;}.cls-168{fill:#832a32;}.cls-169{fill:#414f57;}.cls-170{fill:#080e18;}.cls-171{fill:#b9b4aa;}.cls-172{fill:#3c4755;}.cls-173{fill:#1b4566;}.cls-174{fill:#0a110e;}.cls-175{fill:#adadac;}.cls-176{fill:#6d7371;}.cls-177{fill:#1b0c01;}.cls-178{fill:#c5b9be;}.cls-179{fill:#4a0503;}.cls-180{fill:#121721;}.cls-181{fill:#b8a9ac;}.cls-182{fill:#465466;}.cls-183{fill:#0a090c;}.cls-184{fill:#d6ccb7;}.cls-185{fill:#111921;}.cls-186{fill:#101013;}.cls-187{fill:#a03241;}.cls-188{fill:#b84255;}.cls-189{fill:#a71c26;}.cls-190{fill:#bc202a;}.cls-191{fill:#fdb8c1;}.cls-192{fill:#0c100e;}.cls-193{fill:#dbe1df;}.cls-194{fill:#170807;}.cls-195{fill:#0b0806;}.cls-196{fill:#a5adad;}.cls-197{fill:#afb1ac;}.cls-198{fill:#b8c0c8;}.cls-199{fill:#a8ada7;}.cls-200{fill:#b8bbb6;}.cls-201{fill:#b5b6b2;}.cls-202{fill:#b8b8b4;}.cls-203{fill:#0f130d;}.cls-204{fill:#2f3434;}.cls-205{fill:#bbbeb9;}.cls-206{fill:#380c09;}.cls-207{fill:#7f0507;}.cls-208{fill:#4c0305;}.cls-209{fill:#8e363e;}.cls-210{fill:#2b0505;}.cls-211{fill:#6d3535;}.cls-212{fill:#c5191d;}.cls-213{fill:#b01314;}.cls-214{fill:#c1323f;}.cls-215{fill:#9a3f48;}.cls-216{fill:#7e3036;}.cls-217{fill:#bb2830;}.cls-218{fill:#f4a9a2;}.cls-219{fill:#bf3038;}.cls-220{fill:#b01a1b;}.cls-221{fill:#040305;}.cls-222{fill:#030304;}.cls-223{fill:#c9caca;}.cls-224{fill:#0d100e;}.cls-225{fill:#05080e;}.cls-226{fill:#4e4f4d;}.cls-227{fill:#0b1015;}.cls-228{fill:#dcd8d4;}.cls-229{fill:#090707;}.cls-230{fill:#3f464c;}.cls-231{fill:#131313;}.cls-232{fill:#909091;}.cls-233{fill:#0b0e13;}.cls-234{fill:#bbbab8;}.cls-235{fill:#d0d0d0;}.cls-236{fill:#ececeb;}.cls-237{fill:#edeeee;}.cls-238{fill:#0a0e0b;}.cls-239{fill:#9da098;}.cls-240{fill:#d0d4d4;}.cls-241{fill:#161910;}.cls-242{fill:#820a0a;}.cls-243{fill:#120503;}.cls-244{fill:#7c3132;}.cls-245{fill:#430404;}.cls-246{fill:#773d41;}.cls-247{fill:#481011;}.cls-248{fill:#51292f;}.cls-249{fill:#330b0c;}.cls-250{fill:#c4191a;}.cls-251{fill:#fadbdd;}.cls-252{fill:#c7caca;}.cls-253{fill:#f0e8d4;}.cls-254{fill:#979795;}.cls-255{fill:#566a81;}.cls-256{fill:#868d93;}.cls-257{fill:#f1efef;}.cls-258{fill:#451010;}.cls-259{fill:#e3ded8;}.cls-260{fill:#959fa7;}.cls-261{fill:#383b39;}.cls-262{fill:#575755;}.cls-263{fill:#dcdcd9;}.cls-264{fill:#151517;}.cls-265{fill:#f2f1f3;}.cls-266{fill:#111211;}.cls-267{fill:#8c959c;}.cls-268{fill:#313734;}.cls-269{fill:#a3a9a9;}.cls-270{fill:#b8bab7;}.cls-271{fill:#c1aba7;}.cls-272{fill:#d9a9aa;}.cls-273{fill:#0f0c0b;}.cls-274{fill:#b0925e;}.cls-275{fill:#cbc2b5;}.cls-276{fill:#d0d5de;}.cls-277{fill:#a0b5cc;}.cls-278{fill:#ede8dd;}.cls-279{fill:#040904;}.cls-280{fill:#d9d9d9;}.cls-281{fill:#cbd1d5;}.cls-282{fill:#dae5eb;}.cls-283{fill:#4e6b84;}.cls-284{fill:#060d0e;}.cls-285{fill:#d0d3d1;}.cls-286{fill:#767679;}.cls-287{fill:#02050c;}.cls-288{fill:#3d5166;}.cls-289{fill:#f2bec0;}.cls-290{fill:#cd757b;}.cls-291{fill:#3b0708;}.cls-292{fill:#070905;}.cls-293{fill:#d4d7d4;}.cls-294{fill:#babdb4;}.cls-295{fill:#525349;}.cls-296{fill:#812e31;}.cls-297{fill:#a82734;}.cls-298{fill:#49080a;}.cls-299{fill:#592d2b;}.cls-300{fill:#c66971;}.cls-301{fill:#dd1115;}.cls-302{fill:#738a9c;}.cls-303{fill:#201109;}.cls-304{fill:#070c11;}.cls-305{fill:#b3b09e;}.cls-306{fill:#8e968d;}.cls-307{fill:#788ea2;}.cls-308{fill:#c8c8c2;}.cls-309{fill:#7896af;}.cls-310{fill:#9f9e93;}.cls-311{fill:#070d1c;}.cls-312{fill:#dbe2e4;}.cls-313{fill:#d8cbb1;}.cls-314{fill:#77807f;}.cls-315{fill:#373c42;}.cls-316{fill:#0d1106;}.cls-317{fill:#a89374;}.cls-318{fill:#233645;}.cls-319{fill:#857a76;}.cls-320{fill:#7c9abc;}.cls-321{fill:#3b5161;}.cls-322{fill:#0b0e0c;}.cls-323{fill:#0c0f0c;}.cls-324{fill:#b8bab5;}.cls-325{fill:#2e342f;}.cls-326{fill:#c0c1be;}.cls-327{fill:#a2a39e;}.cls-328{fill:#e8e7e9;}.cls-329{fill:#e8e8e7;}.cls-330{fill:#ebecea;}.cls-331{fill:#a5a89f;}.cls-332{fill:#9e9da2;}.cls-333{fill:#646d74;}.cls-334{fill:#e5e5e4;}.cls-335{fill:#9da3a0;}.cls-336{fill:#eeece7;}.cls-337{fill:#b6b7b3;}.cls-338{fill:#33342c;}.cls-339{fill:#e30c0d;}.cls-340{fill:#7d4346;}.cls-341{fill:#939491;}.cls-342{fill:#beb8b3;}.cls-343{fill:#bea882;}.cls-344{fill:#bba696;}.cls-345{fill:#e3e8e6;}.cls-346{fill:#72706d;}.cls-347{fill:#e8c58b;}.cls-348{fill:#f2f4f3;}.cls-349{fill:#e3e5e3;}.cls-350{fill:#f2f4ef;}.cls-351{fill:#090c0a;}.cls-352{fill:#edf1ec;}.cls-353{fill:#686f61;}.cls-354{fill:#c0b79f;}.cls-355{fill:#1a1c18;}.cls-356{fill:#eaf0ef;}.cls-357{fill:#766f60;}.cls-358{fill:#e2e3e0;}.cls-359{fill:#c2baa1;}.cls-360{fill:#aaa891;}.cls-361{fill:#fefefe;}.cls-362{fill:#dee3de;}.cls-363{fill:#dedbd4;}.cls-364{fill:#2e2823;}.cls-365{fill:#0d0703;}.cls-366{fill:#020b04;}.cls-367{fill:#9d9b95;}.cls-368{fill:#797b7a;}</style></defs><title>pasion-choppers-malvinas-ico</title><path class="cls-1" d="M-414.11,761.37l0.76,0.19a3.14,3.14,0,0,1,1.09.88,2.9,2.9,0,0,1,.22.93c-0.15,1,.66,1.85.19,2.83a2.6,2.6,0,0,1-.91.47,4,4,0,0,1-2.09-.15,5.68,5.68,0,0,1-2.74-2.42c-1.33-1.56-1.63-3,.39-4.31C-415.82,759.63-415,760.67-414.11,761.37Z" transform="translate(481.89 -755.45)"/><path class="cls-2" d="M-409.63,763.94l0.73,0.45c1.65-.26,2.09,1,2.7,2.11a4,4,0,0,1,.24,1.08,2.48,2.48,0,0,1-.49,1.58,2.37,2.37,0,0,1-1,.48,4.06,4.06,0,0,1-1.71-.13c-1.32-.47-2.56-1-2.57-2.73,0.51-1.11-.39-2.28.13-3.39a1.17,1.17,0,0,1,.87-0.67A1.9,1.9,0,0,1-409.63,763.94Z" transform="translate(481.89 -755.45)"/><path class="cls-3" d="M-417.12,760.12a2.83,2.83,0,0,0,0,3.49,1.14,1.14,0,0,1-1.3.5c-1.46-.17-1.54-2.1-3-2.33a1.06,1.06,0,0,1-.63-0.67c-0.17-1.43,1-1.49,1.87-1.79l1.41-.06A1.57,1.57,0,0,1-417.12,760.12Z" transform="translate(481.89 -755.45)"/><path class="cls-4" d="M-420.11,759.31c-0.44.73-1.57,1-1.51,2-0.87,1-1.62.37-2.38-.19a5.29,5.29,0,0,1-1.76-2.68,1.62,1.62,0,0,1,.42-1,1.7,1.7,0,0,1,1.56.09Z" transform="translate(481.89 -755.45)"/><path class="cls-5" d="M-417.12,760.12c-0.57-.21-1.32-0.09-1.58-0.86,2.22-.78,3.88-0.36,4.59,2.12C-415.55,762-416,760.18-417.12,760.12Z" transform="translate(481.89 -755.45)"/><path class="cls-6" d="M-411.1,763q0,1.88,0,3.76c-0.66.31-.83,0-0.81-0.62-0.72-.92-1.78-1.76-0.7-3.09a1.3,1.3,0,0,0,.37-0.64l0.28-.25,0.79,0.17q0.43,0.18.32,0.41A0.34,0.34,0,0,1-411.1,763Z" transform="translate(481.89 -755.45)"/><path class="cls-7" d="M-423.78,757.61l-1.59.25a1.23,1.23,0,0,1-1,.18,2.21,2.21,0,0,1-1.53-1.28,0.87,0.87,0,0,1,.49-0.82,2.59,2.59,0,0,1,2,.3Z" transform="translate(481.89 -755.45)"/><path class="cls-8" d="M-425.37,756.24l-2.23,0a2.32,2.32,0,0,1-2.84.3,0.75,0.75,0,0,1-.18-1.06l0,0C-428.87,755.8-426.95,754.83-425.37,756.24Z" transform="translate(481.89 -755.45)"/><path class="cls-9" d="M-409.63,763.94l-0.75-.9a0.42,0.42,0,0,1-.21-0.49,0.31,0.31,0,0,1,.19-0.25A1.41,1.41,0,0,1-409.63,763.94Z" transform="translate(481.89 -755.45)"/><path class="cls-10" d="M-412.61,762.36l-0.74-.79a1.06,1.06,0,0,1,1.39.56l0.15,0.26A0.75,0.75,0,0,1-412.61,762.36Z" transform="translate(481.89 -755.45)"/><path class="cls-11" d="M-410.4,762.3a5.83,5.83,0,0,1,0,.73l-0.71-.09q0-.33-0.07-0.66h0.76Z" transform="translate(481.89 -755.45)"/><path class="cls-12" d="M-444.85,757.66a1.63,1.63,0,0,0,1.73-.54,1,1,0,0,1,1-.2,32.08,32.08,0,0,0,4.85,0,3.44,3.44,0,0,1,1.6.48,2.14,2.14,0,0,1,.9,2.43c-0.72,1.28-2.52.75-3.28,2s0.15,2.48-.35,3.66a1.24,1.24,0,0,1-1.18.77c-1.89-.8-2.31-2.28-2-4.15,0.12-.66.7-1.54-0.11-2s-1.48.49-2.13,1a14.1,14.1,0,0,1-2.72,1.73,6.5,6.5,0,0,1-2.79.29,3.18,3.18,0,0,1-2.41-1.34,1.58,1.58,0,0,1,0-1.06,11.59,11.59,0,0,0,4.5-2.45A3.39,3.39,0,0,1-444.85,757.66Z" transform="translate(481.89 -755.45)"/><path class="cls-13" d="M-447.11,758.55c-0.65,2.44-2.66,2.11-4.47,2.2a0.38,0.38,0,0,1-.2-0.45,0.3,0.3,0,0,1,.19-0.23l0.74-.76c0.61-.1,1.31,0,1.61-0.78A1.54,1.54,0,0,1-447.11,758.55Z" transform="translate(481.89 -755.45)"/><path class="cls-14" d="M-447.11,758.55l-2.12,0c1.31-1,2.65-1.93,4.38-.87Z" transform="translate(481.89 -755.45)"/><path class="cls-15" d="M-442.73,757.26l-0.38-.14,0.5-1,4.51,0a0.6,0.6,0,0,1,.95.35,0.75,0.75,0,0,1-.7.82A37.58,37.58,0,0,1-442.73,757.26Z" transform="translate(481.89 -755.45)"/><path class="cls-16" d="M-466.61,767.51h1.49a1.61,1.61,0,0,1-.37,1.82,26.64,26.64,0,0,1-2.7,2.88,1.51,1.51,0,0,1-1.47-.06,0.7,0.7,0,0,1,0-.91Z" transform="translate(481.89 -755.45)"/><path class="cls-17" d="M-459.23,764.36c0-1.23.82-1.42,1.77-1.49a2,2,0,0,1,2.17-.09c1.18,2,.72,4,0.3,6.05a1.63,1.63,0,0,1-.9.67,2.5,2.5,0,0,1-1.13,0,6.16,6.16,0,0,1-2.57-2.95A2.37,2.37,0,0,1-459.23,764.36Z" transform="translate(481.89 -755.45)"/><path class="cls-18" d="M-459.23,764.36l0.1,2.34a3.8,3.8,0,0,1-.37,2.38,2.19,2.19,0,0,1-1.16.93,1.94,1.94,0,0,1-1.77-.89,3,3,0,0,1-.31-1,3.71,3.71,0,0,1,1.66-3.06,6.21,6.21,0,0,0,1.34-.66A4.25,4.25,0,0,0-459.23,764.36Z" transform="translate(481.89 -755.45)"/><path class="cls-19" d="M-451.59,760.06a5.43,5.43,0,0,0,0,.68l-0.08.75c0.07,0.83.64,1.68-.13,2.47a2,2,0,0,1-2,.12,3.5,3.5,0,0,1-1.14-1.74,1.12,1.12,0,0,1,.32-0.94C-453.73,760.69-452.88,759.86-451.59,760.06Z" transform="translate(481.89 -755.45)"/><path class="cls-20" d="M-459.74,764.41l-0.9,1c-1.35.19-1.85,2.55-3.71,1.44l0.76-3A7,7,0,0,1-459.74,764.41Z" transform="translate(481.89 -755.45)"/><path class="cls-21" d="M-454.62,761.4l0.1,0.82c0.17,0.77-.17,1-0.89.85l-2-.2C-457,761.39-455.84,761.36-454.62,761.4Z" transform="translate(481.89 -755.45)"/><path class="cls-22" d="M-406.61,766.84c1.47-.17,2.5.85,3.71,1.38l0.75,0.76,0.44,0.29c0.47,0.74,1.07,1.48.12,2.29a3.16,3.16,0,0,1-2.92-.72c-1.18-.81-1.56-2.13-2.07-3.36Q-406.6,767.17-406.61,766.84Z" transform="translate(481.89 -755.45)"/><path class="cls-23" d="M-411.91,766.1l0.81,0.62c-0.39,1.84,2,1,2.19,2.25a1.84,1.84,0,0,1-.59,1.27,3,3,0,0,1-1.67.78,2.65,2.65,0,0,0-1.91.89,1.61,1.61,0,0,1-.81.32c-0.66-.68-1.19.22-1.8,0.16a1.73,1.73,0,0,1-.85-0.45,2.27,2.27,0,0,1-.36-0.92,2.26,2.26,0,0,1,.76-1.78c1.25-1,2.32-2.22,3.59-3.19A1.83,1.83,0,0,1-411.91,766.1Z" transform="translate(481.89 -755.45)"/><path class="cls-24" d="M-418.57,763.79l1.48-.18,2.32,2.39a1.62,1.62,0,0,1-.78,1.88,8.7,8.7,0,0,1-3.66.84,1.53,1.53,0,0,1-1.22-.9A4.67,4.67,0,0,1-419,764Z" transform="translate(481.89 -755.45)"/><path class="cls-25" d="M-415.7,767.26l0.92-1.26,2.23,0c-0.31,1.81-1.65,2.74-3.08,3.6C-417.31,768.89-416.18,768.07-415.7,767.26Z" transform="translate(481.89 -755.45)"/><path class="cls-26" d="M-412.61,762.36l0.79,0-0.79.62Q-412.61,762.68-412.61,762.36Z" transform="translate(481.89 -755.45)"/><path class="cls-27" d="M-407.17,769.1a1.68,1.68,0,0,0,.5.1,1.57,1.57,0,0,1,1.34,1.23,16.53,16.53,0,0,1-.22,3.29,1.38,1.38,0,0,1-1,.95c-0.78.12-1.56,0-2.34,0.1a3.79,3.79,0,0,1-1,0,2.17,2.17,0,0,1-1.49-1.14,1.4,1.4,0,0,1,.43-1.28c0.55-.51,1.16-1,1.67-1.52A7,7,0,0,1-407.17,769.1Z" transform="translate(481.89 -755.45)"/><path class="cls-28" d="M-407.17,769.1a2.66,2.66,0,0,1-1.67,2.18,1.08,1.08,0,0,1-.78-1.59l0.71-.73Z" transform="translate(481.89 -755.45)"/><path class="cls-28" d="M-405.78,770.38l-0.89-1.18,0.08-1.7c0.78,1,2.06,1.57,2.24,3a1.19,1.19,0,0,1-.78.4A0.78,0.78,0,0,1-405.78,770.38Z" transform="translate(481.89 -755.45)"/><path class="cls-29" d="M-423.67,760.9l2,0.46a3.62,3.62,0,0,0,.64.38,3.11,3.11,0,0,1,1.34,2.12,2.44,2.44,0,0,1-1.76,2.37,2,2,0,0,1-1.28-.79c-0.45-.68-0.81-1.42-1.31-2.07a2.51,2.51,0,0,1-.43-1.37,2,2,0,0,1,.32-0.9Z" transform="translate(481.89 -755.45)"/><path class="cls-4" d="M-420.05,763.78l-0.93-2c1.75-.43,1.62,1.35,2.41,2.05h0A1,1,0,0,1-420.05,763.78Z" transform="translate(481.89 -755.45)"/><path class="cls-30" d="M-425.37,758.51c0.58,0.79,1.62,1.24,1.7,2.39h0a2.87,2.87,0,0,1-3,.28,1.75,1.75,0,0,1-.75-1,2.21,2.21,0,0,1,.33-1.78A1.29,1.29,0,0,1-425.37,758.51Z" transform="translate(481.89 -755.45)"/><path class="cls-31" d="M-425.37,758.51l-1.49,0c-1.29.69-2.53,1.19-3.09-.84,1.27-1,2.56-.33,3.85,0l0.72,0.19Q-425.37,758.19-425.37,758.51Z" transform="translate(481.89 -755.45)"/><path class="cls-32" d="M-426.1,757.66l-3.74.22a1.2,1.2,0,0,1-1.41.11l-0.3-.41,0.26-.44-0.08-.27a6.3,6.3,0,0,1,3.71,0C-427.1,757.08-426.41,757-426.1,757.66Z" transform="translate(481.89 -755.45)"/><path class="cls-33" d="M-427.65,756.88h-3.71l0.76-.7,3,0.1Q-427.62,756.58-427.65,756.88Z" transform="translate(481.89 -755.45)"/><path class="cls-34" d="M-439.61,766l0.76-.78a3.22,3.22,0,0,1,1.27-.81,3.58,3.58,0,0,1,3,.33,2,2,0,0,1,1.05,1.77c-1.08,1.63-3,.94-4.42,1.59a9.48,9.48,0,0,1-1.55.28,5.39,5.39,0,0,0-3.29,1.13,7,7,0,0,1-4.19.62,3.87,3.87,0,0,1-2-2.43,3.51,3.51,0,0,1,1.61-2.63,2.26,2.26,0,0,1,1.47-.3,14.11,14.11,0,0,0,2.74.82c0.62,0.06,1.22.19,1.83,0.27S-440.19,766-439.61,766Z" transform="translate(481.89 -755.45)"/><path class="cls-35" d="M-439.61,766a1.51,1.51,0,0,1-1.49.73c-2.3-.89-2.08-3.35-3.12-5a0.78,0.78,0,0,1,.08-0.91c0.46-2,2.11-2.72,3.64-2s0.18,2.28-.24,3.21C-441.57,763.82-440.29,764.77-439.61,766Z" transform="translate(481.89 -755.45)"/><path class="cls-36" d="M-445.73,765.32l-1.34-.16a2.5,2.5,0,0,1-2.64-1.44,1.25,1.25,0,0,1,.4-1.43h2.94a2.58,2.58,0,0,1,2.58.83,2.15,2.15,0,0,1,.07,1.71A1.34,1.34,0,0,1-445.73,765.32Z" transform="translate(481.89 -755.45)"/><path class="cls-37" d="M-435.1,759.83l-0.75-2c1.46-1.41,3-.67,4.59-0.22l-0.06.09a1.51,1.51,0,0,1,.36,1.44,3.24,3.24,0,0,1-.88,1.3,2.45,2.45,0,0,1-2.45.65A1.37,1.37,0,0,1-435.1,759.83Z" transform="translate(481.89 -755.45)"/><path class="cls-38" d="M-437.43,765.21h-1.41c0-1.26-1.54-2.46-.15-3.78,0.59-.36,1-1.33,1.94-0.6a3.57,3.57,0,0,1,.46,2.83A3.8,3.8,0,0,1-437.43,765.21Z" transform="translate(481.89 -755.45)"/><path class="cls-39" d="M-437.27,760.77l-1.73.67c0.53-2.38,2.6-1.06,3.89-1.61l0.86,0.92a1.08,1.08,0,0,1-.32,1.66,1.5,1.5,0,0,1-.94,0A5.69,5.69,0,0,1-437.27,760.77Z" transform="translate(481.89 -755.45)"/><path class="cls-40" d="M-431.26,757.62l-4.59.22-1.56-.14q-0.36-.24-0.22-0.46a0.35,0.35,0,0,1,.25-0.21l0.18-.67,0.69,0.15c1.44,0.38,3-.16,4.39.36l0.82,0.29Q-431.27,757.38-431.26,757.62Z" transform="translate(481.89 -755.45)"/><path class="cls-41" d="M-449.3,762.29l0,1.37a1.51,1.51,0,0,1-1.91.49l-0.42-.34c-0.13-.77-1.13-1.54,0-2.31Z" transform="translate(481.89 -755.45)"/><path class="cls-42" d="M-444.23,763.06c-0.74-.17-1.69.21-2.13-0.78,0.42-1,1-1.77,2.22-1.48a3.84,3.84,0,0,0,.2.65A1.2,1.2,0,0,1-444.23,763.06Z" transform="translate(481.89 -755.45)"/><path class="cls-43" d="M-437.38,757q0,0.34,0,.67c-1.79,0-3.61.51-5.32-.44Z" transform="translate(481.89 -755.45)"/><path class="cls-44" d="M-432.11,756.86c-1.48.09-3,.59-4.39-0.36C-435,756.32-433.48,755.64-432.11,756.86Z" transform="translate(481.89 -755.45)"/><path class="cls-45" d="M-464.34,766.82c1.54,0.31,2-2.09,3.71-1.44-0.49,1-1.64,1.57-1.59,2.84-0.66.77-.86,1.88-1.83,2.41a1.58,1.58,0,0,1-1,.1,1.81,1.81,0,0,1-.81-1.74l0.72-1.47Z" transform="translate(481.89 -755.45)"/><path class="cls-46" d="M-472.53,777.12l0.68-2.86,2.28-2.23,1.37-.12,0.38,0.33a1.78,1.78,0,0,1,0,1.46,12.8,12.8,0,0,1-1.55,2C-470.34,776.36-470.72,778.31-472.53,777.12Z" transform="translate(481.89 -755.45)"/><path class="cls-47" d="M-465.85,769a1.53,1.53,0,0,1,.75,1.44A2.64,2.64,0,0,1-468,772l-0.2-.1C-468.12,770.37-467,769.67-465.85,769Z" transform="translate(481.89 -755.45)"/><path class="cls-48" d="M-479.45,790.76l1-2.21a6.52,6.52,0,0,1,3.77,2.36c-0.8,2.18-2.34,4-3,6.24-0.82.73-1.66,1.13-2.63,0.26C-480.85,795.09-480.12,792.93-479.45,790.76Z" transform="translate(481.89 -755.45)"/><path class="cls-49" d="M-474.9,790.77c-1.85.33-2.66-1-3.54-2.22L-478,787a5.13,5.13,0,0,1,.71-2.95c0.19-.88.89-0.77,1.52-0.79a1.45,1.45,0,0,1,.62,1.27,7,7,0,0,0,.19,3.23,4,4,0,0,1,.32.85A4.63,4.63,0,0,1-474.9,790.77Z" transform="translate(481.89 -755.45)"/><path class="cls-50" d="M-475.5,782.52c0.72-1.68-.05-4.25,2.79-4.66a2.24,2.24,0,0,1,2.09,1.54,2,2,0,0,1-.67,2,17.23,17.23,0,0,1-2.76,1.51A1.43,1.43,0,0,1-475.5,782.52Z" transform="translate(481.89 -755.45)"/><path class="cls-51" d="M-471.07,779.59l-1.65-1.72,0.19-.74c1.65,0.21,1.62-1.85,2.9-2.14l0.33,0.37a9,9,0,0,1,0,2.93C-469.57,779.13-470,779.82-471.07,779.59Z" transform="translate(481.89 -755.45)"/><path class="cls-52" d="M-479.45,790.76l-0.68,6.73-0.24.25-0.32-.14c-0.89-2.37.22-4.58,0.54-6.86A4.33,4.33,0,0,1-479.45,790.76Z" transform="translate(481.89 -755.45)"/><path class="cls-53" d="M-475.5,782.52l1.41,0c0.88,0.76,1.09,1.93,1.7,2.86a1.73,1.73,0,0,1,0,1,1.51,1.51,0,0,1-2.57.27,2.78,2.78,0,0,1-.59-1.88l-0.18-1.49Z" transform="translate(481.89 -755.45)"/><path class="cls-54" d="M-477.25,784c0.45,1.15-.22,2-0.71,2.95C-479.29,785.62-478.34,784.81-477.25,784Z" transform="translate(481.89 -755.45)"/><path class="cls-55" d="M-455.42,763.07l0.89-.85c0.81,0.21.61,0.89,0.68,1.45,0.42,0.47,1.07.79,1.08,1.55a22.08,22.08,0,0,0,.14,2.91,2.27,2.27,0,0,1-.91,1.72,1.67,1.67,0,0,1-1,.19,1.42,1.42,0,0,1-.95-1.08Z" transform="translate(481.89 -755.45)"/><path class="cls-56" d="M-459.66,768.91c0-.79-0.47-1.68.54-2.22,1.82-.1,1.11,2,2.18,2.53a0.69,0.69,0,0,1,.21.57,0.37,0.37,0,0,1-.11.31,1.42,1.42,0,0,1-1.3.64A1.85,1.85,0,0,1-459.66,768.91Z" transform="translate(481.89 -755.45)"/><path class="cls-57" d="M-457.65,770.62l0.8-.87a1.82,1.82,0,0,1,.75-0.6,3.56,3.56,0,0,1,.65-0.19l0.82,0.66c0.12,1.81-.29,3.15-2.53,2.86a1.26,1.26,0,0,1-.78-0.79A1.27,1.27,0,0,1-457.65,770.62Z" transform="translate(481.89 -755.45)"/><path class="cls-58" d="M-456.1,769.15l-0.75.6a1.21,1.21,0,0,1-.09-0.52Z" transform="translate(481.89 -755.45)"/><path class="cls-59" d="M-457.65,770.62a0.94,0.94,0,0,0,0,.48,1.76,1.76,0,0,1-1.38.84,2.42,2.42,0,0,1-1.6-.46,1.23,1.23,0,0,1,0-1.55l1-1Z" transform="translate(481.89 -755.45)"/><path class="cls-60" d="M-460.69,769.93l0.17,1.25a1.72,1.72,0,0,1-2.24.35c-0.86-1.1-.6-1.86.7-2.31Z" transform="translate(481.89 -755.45)"/><path class="cls-61" d="M-462,769.22l-0.43,2.13a1.5,1.5,0,0,1-.95.23,1.36,1.36,0,0,1-1-1.07c0.52-1,.78-2.14,2.15-2.29Z" transform="translate(481.89 -755.45)"/><path class="cls-62" d="M-453.11,765.13l-0.73-1.46,2.17,0.14,0,0c1.53,0.65,2.47,1.68,2.26,3.46a4.37,4.37,0,0,1-.19,1.1,1.56,1.56,0,0,1-1.26.95,1.67,1.67,0,0,1-1.46-1.34A17,17,0,0,1-453.11,765.13Z" transform="translate(481.89 -755.45)"/><path class="cls-63" d="M-397.66,772.77a4.72,4.72,0,0,1,.73,3.52,0.61,0.61,0,0,1-.8.32,3,3,0,0,1-.62-0.76c-0.42-1.23-1.6-2.09-1.73-3.47l0.21-.45,1.48,0.15Z" transform="translate(481.89 -755.45)"/><path class="cls-64" d="M-405.13,770.51l0.78,0,2.91,0.8a1.26,1.26,0,0,1,1.13.82c0.15,0.82.7,1.51,0.81,2.34a2.74,2.74,0,0,1-1,2.19c-1.46.1-1.71-1.3-2.52-2-0.39-.5-0.75-1-1.13-1.55C-404.7,772.29-405.57,771.64-405.13,770.51Z" transform="translate(481.89 -755.45)"/><path class="cls-65" d="M-400.63,772.08l-0.81-.79-0.62-2.23a3.4,3.4,0,0,1,.64-0.06c0.49,1,1.69,1.6,1.56,2.93V772A0.42,0.42,0,0,1-400.63,772.08Z" transform="translate(481.89 -755.45)"/><path class="cls-66" d="M-389.41,789.39q0,0.28-.07.56c1.06,2,1.16,4.2,1.71,6.31,0.2,1.3.11,2.61,0.23,3.91,0.1,1.13.46,2.21,0.54,3.34,0.13,1.36-.45,2.61-0.54,3.94-0.08,1.12-.06,2.26-0.24,3.38s-0.53,2.16-.77,3.24a45.88,45.88,0,0,1-1.38,4.7c-0.79,1.57-.87,3.41-1.81,4.92a8.48,8.48,0,0,0-1.42,3.21,5.18,5.18,0,0,1-1.26,2.31,2.8,2.8,0,0,1-1,.41,5.49,5.49,0,0,1-2.6-.53c-2.72-.91-5.42-1.89-8.36-1.72-1-1.3-1.58.35-2.4,0.35-2.14-1-2.94-2.1-.18-3.35a19.11,19.11,0,0,0,2-1,4.68,4.68,0,0,0,2.52-3.21c1-2.84,2.39-5.51,3.25-8.4a21.22,21.22,0,0,1,.92-3c1.13-1.57,3.29-1.37,4.6-2.93A10.65,10.65,0,0,0-393,798c1.56-3-.7-6,0.07-9.08,0.27-1.07.06-2.24,1.28-2.85C-389.51,786.25-390.55,788.55-389.41,789.39Z" transform="translate(481.89 -755.45)"/><path class="cls-67" d="M-415.7,767.26c-0.12.79-.55,1.6,0.07,2.37-0.7.32-.64,1-0.83,1.61a1.35,1.35,0,0,1-.71.53,2.54,2.54,0,0,1-.9,0,1.81,1.81,0,0,1-.74-0.47,3,3,0,0,1-.27-0.82,10.19,10.19,0,0,0-.41-1.21,0.9,0.9,0,0,1,.08-0.81C-418.42,767.3-417,767.58-415.7,767.26Z" transform="translate(481.89 -755.45)"/><path class="cls-68" d="M-410.37,772.67l-0.69.84c0,1.26-.57.77-1.14,0.44a9.54,9.54,0,0,1-1.08-1.57l-0.14-.45c0.07-1.69.36-3,2.36-1.37C-410.12,771-409.59,771.62-410.37,772.67Z" transform="translate(481.89 -755.45)"/><path class="cls-69" d="M-410.37,772.67l-0.7-2.11,1.45-.86,0.78,1.59C-409.18,771.94-409.46,772.65-410.37,772.67Z" transform="translate(481.89 -755.45)"/><path class="cls-70" d="M-415.66,772.11c0.55,0.12.94-1.2,1.59-.18a0.71,0.71,0,0,1,.21.6,0.38,0.38,0,0,1-.13.32,1.41,1.41,0,0,1-1.47.15l-0.34-.4Z" transform="translate(481.89 -755.45)"/><path class="cls-71" d="M-414.13,772.74l0.06-.81a1.25,1.25,0,0,0,.63,0l0.23,0.21a1.16,1.16,0,0,1,.7,1.53,1.76,1.76,0,0,1-.9.3,1.66,1.66,0,0,1-.87-0.38A0.65,0.65,0,0,1-414.13,772.74Z" transform="translate(481.89 -755.45)"/><path class="cls-72" d="M-415.66,772.11a1.43,1.43,0,0,1-.11.71,0.84,0.84,0,0,1-.75-0.52l0.18-.46A4.38,4.38,0,0,1-415.66,772.11Z" transform="translate(481.89 -755.45)"/><path class="cls-73" d="M-417.11,771.26l0.66,0a1.07,1.07,0,0,1,.11.6,1.08,1.08,0,0,1,0,.39,1,1,0,0,1-.89-0.15A0.61,0.61,0,0,1-417.11,771.26Z" transform="translate(481.89 -755.45)"/><path class="cls-74" d="M-419.4,768.46q0,0.25,0,.49a1.5,1.5,0,0,1-.73,1.17,3.28,3.28,0,0,1-.9.3,5.8,5.8,0,0,1-3.16-.67c-0.29-.11-0.56-0.25-0.84-0.38a16.26,16.26,0,0,1-2.18-.92,3,3,0,0,1-.95-1.2,4.58,4.58,0,0,1-.29-1.59,3.1,3.1,0,0,1,.68-2.06,1.7,1.7,0,0,1,1.53-.17,6,6,0,0,0,4.38,2.83c0.67,0.18,1.38.33,1.47,1.21Z" transform="translate(481.89 -755.45)"/><path class="cls-75" d="M-420.37,767.46l-1.38-.77a0.48,0.48,0,0,1,.15-0.68l1.55-2.24,1.46,0A7.24,7.24,0,0,1-420.37,767.46Z" transform="translate(481.89 -755.45)"/><path class="cls-76" d="M-403.74,772.71a1.45,1.45,0,0,1,.83,1.45c0,2.34-1.65,2.61-3.43,2.68a1.34,1.34,0,0,1-.74-0.84,1.62,1.62,0,0,1,.45-1.58l0.89-.89A1.57,1.57,0,0,1-403.74,772.71Z" transform="translate(481.89 -755.45)"/><path class="cls-77" d="M-413.48,773.56l0.87-.07c0.25-.36.5-0.33,0.74,0,0.26,0.54.53,0.48,0.8,0l1.46,1a2,2,0,0,1-1.83,2.51C-413.39,776.62-414.19,775.53-413.48,773.56Z" transform="translate(481.89 -755.45)"/><path class="cls-78" d="M-411.3,776.67l1.69-2.15,0.76-.17a2.23,2.23,0,0,1,.64.81,8.63,8.63,0,0,1,.67,3.57,2,2,0,0,1-.54.92C-410.07,779.65-411,778.55-411.3,776.67Z" transform="translate(481.89 -755.45)"/><path class="cls-79" d="M-403.74,772.71c-0.63.36-1.12,1.06-2,.83-1.5-1,.21-2.11,0-3.16l0.65,0.13Z" transform="translate(481.89 -755.45)"/><path class="cls-80" d="M-408.86,775a1.15,1.15,0,0,1,0-.61c0.81-2,1.48-.13,2.21.08q0,0.65,0,1.29C-407.75,776.63-408.3,775.79-408.86,775Z" transform="translate(481.89 -755.45)"/><path class="cls-81" d="M-421.61,766a1.71,1.71,0,0,1-.15.68c-2.28.18-4.58,0.41-4.53-3-0.38-2,.36-2.85,2.43-2.22l0.05,1.64c0.36,0.74.38,1.69,1.33,2.05Z" transform="translate(481.89 -755.45)"/><path class="cls-4" d="M-423.86,761.51c-1.67-.2-2.2.84-2.43,2.22h-1.1a1.51,1.51,0,0,1-.87-1.39c0.08-.8.18-1.59,1.26-1.6l3.32,0.17A1.65,1.65,0,0,1-423.86,761.51Z" transform="translate(481.89 -755.45)"/><path class="cls-82" d="M-422.48,765.21c-0.62.21-1.24,1.14-1.84,0.46-0.78-.88,0-1.74.52-2.51C-421.84,762.85-422.61,764.32-422.48,765.21Z" transform="translate(481.89 -755.45)"/><path class="cls-83" d="M-431.35,759.26l0-1.56,1.49,0.18c0.84,0.92,2,.49,3,0.65l-0.13,1.64a2.93,2.93,0,0,1-1,.14C-429.16,760.13-430.44,760.27-431.35,759.26Z" transform="translate(481.89 -755.45)"/><path class="cls-84" d="M-427.67,759.9l0.69,0.28a1.22,1.22,0,0,0,0,.56l-0.73,1.52c-1,.78-1.69.21-2.32-0.57a1.69,1.69,0,0,1,0-1.08A1.8,1.8,0,0,1-427.67,759.9Z" transform="translate(481.89 -755.45)"/><path class="cls-85" d="M-411.3,776.67l3.15,2.92c2.74,1.64,4.07,4.39,5.57,7a4.78,4.78,0,0,1,.23,1,18.84,18.84,0,0,0,1.25,3.78c0.39,1.15.8,2.29,1.15,3.46a6.27,6.27,0,0,1-.07,3.63c-0.93,1.55-2,0-3,.11a8.72,8.72,0,0,1-2.41-1.63c-0.63-.69-0.89-1.71-1.89-2-1.29-.29-2.47.31-3.69,0.51a4.52,4.52,0,0,1-2.51,0c-2.43-3.07-5.48-2.19-8.53-1.35a5.87,5.87,0,0,1-1.12,1,5.53,5.53,0,0,1-3.41.9,9.53,9.53,0,0,1-1.91-.48,6.46,6.46,0,0,1-1.31-.55,6.18,6.18,0,0,1-.74-0.55,7.61,7.61,0,0,0-2-1.05,7.22,7.22,0,0,1-1.59-.73c-1.12-.92-0.8.24-1,0.65a2.46,2.46,0,0,1-1.36.46c-2-.78-4.12-0.34-6.18-0.1a4.26,4.26,0,0,0-2,.84c-0.21.18,0.5,0.33,0.76,0.56a1.65,1.65,0,0,1,0,2.73,2.9,2.9,0,0,1-1,.38,3.14,3.14,0,0,1-2.86-1.3c-0.94-.83-2.19-1-3.26-1.61,1,0.56,2.09.82,3,1.42,0.53,1.06-.27,2.3.45,3.33-2,3.75-2.46,3.78-4.73.32-0.17-.26,0-0.82-0.77-0.72-2.8.38-2.85,0.31-3.06-2.21-0.18-2.22-.25-4.44-0.55-6.65,0.2-1.46.51-2.84,1.68-3.28-1.73.15-4,0-4.17-3.11-1.53,1.09-3,2.82-5,.54-0.52-1.62.38-2.76,1.3-3.89,1.21-1.39,2.56-2.65,3.85-4a7.58,7.58,0,0,0,2-2.48,6.37,6.37,0,0,1,.39-0.81,2.66,2.66,0,0,1,.61-0.67,11,11,0,0,1,1.6-.84,13.88,13.88,0,0,1,2.19-.59c1.17-.06,1.87-1,2.74-1.55a2.74,2.74,0,0,1,2.36-.48l4.54-.56c1.08-1.32,2.69-.75,4-1.15a31.61,31.61,0,0,1,8.25-.41,12.75,12.75,0,0,1,1.73.52c1.22,0.74,2.75.37,4,1.08l-0.06,0a5.82,5.82,0,0,0,3.19,1.27c0.95,0.34,2.07,0,2.89.84l0.66,0.21a4.51,4.51,0,0,1,.83.62l0.73,0.29,0.58,0.59,0.1,0.05c0.48,0.34,1.15.14,1.61,0.56a2.74,2.74,0,0,0,.59.12C-413.1,774.84-413,776.32-411.3,776.67Z" transform="translate(481.89 -755.45)"/><path class="cls-86" d="M-449.95,767.49c0.15-1.55-.75-2.62-1.7-3.66l2.31-.17,2.28,1.5c0.08,1.18-1,1.55-1.56,2.33A0.81,0.81,0,0,1-449.95,767.49Z" transform="translate(481.89 -755.45)"/><path class="cls-87" d="M-435.14,762.25c0.87-.16.71-0.94,0.9-1.51l2.12-.76a1.79,1.79,0,0,1,.55.86,8.47,8.47,0,0,1-1.47,4.87l-0.4.33-1.67-.8C-435.42,764.25-435.93,763.26-435.14,762.25Z" transform="translate(481.89 -755.45)"/><path class="cls-88" d="M-444.23,763.06l0.3-1.61c0.93-.4,1.45-0.11,1.3.91a5.65,5.65,0,0,0,1.53,4.36l-2.11-.75c-0.81-.26-0.49-1.1-0.83-1.6Z" transform="translate(481.89 -755.45)"/><path class="cls-89" d="M-430,768.22l-9.55,0q-0.4-.3-0.22-0.49a0.46,0.46,0,0,1,.33-0.17l1.41-.23c2-.39,4.15,0,6.14-0.75a3.14,3.14,0,0,1,1.78.55A0.7,0.7,0,0,1-430,768.22Z" transform="translate(481.89 -755.45)"/><path class="cls-90" d="M-431.43,767.38l-6.58,0c1.26-1.34,3.33.14,4.56-1.31v-0.13a1.36,1.36,0,0,1,1-.28,2,2,0,0,1,1.24.86A0.74,0.74,0,0,1-431.43,767.38Z" transform="translate(481.89 -755.45)"/><path class="cls-91" d="M-449.95,767.49h1.32c0.4,0.77,1.55,1,1.5,2.1a3,3,0,0,1-2.23,1c-0.86-.58-0.43-1.52-0.61-2.28Z" transform="translate(481.89 -755.45)"/><path class="cls-92" d="M-435.14,762.25c0,1,.77,2,0,3a2.26,2.26,0,0,0-2.32,0l0.23-1.51c0.42-.81.22-2.44,2-1.49Z" transform="translate(481.89 -755.45)"/><path class="cls-93" d="M-439.42,767.58a3.37,3.37,0,0,1-.11.67c-0.87.86-2.07,0.41-3.06,0.78C-442.34,766.77-440.66,767.66-439.42,767.58Z" transform="translate(481.89 -755.45)"/><path class="cls-94" d="M-444,764.37c0.74,0.3.67,1,.83,1.6-1.15,1-1.78-.06-2.52-0.66A1.81,1.81,0,0,0-444,764.37Z" transform="translate(481.89 -755.45)"/><path class="cls-95" d="M-432.1,760.79l0-.8,0.77-.73c1.24,0.16,2.61-.48,3.68.64l-2.19,1A1.72,1.72,0,0,1-432.1,760.79Z" transform="translate(481.89 -755.45)"/><path class="cls-96" d="M-435.23,762.21c-1.08-.06-1.32,1-2,1.49l-0.07-2.94A2,2,0,0,1-435.23,762.21Z" transform="translate(481.89 -755.45)"/><path class="cls-97" d="M-464.37,770.51l0.74,0.58a7.88,7.88,0,0,1,.09,1.48,2.91,2.91,0,0,1-2,2.66,2.49,2.49,0,0,1-1,.06,2.45,2.45,0,0,1-1.64-1.81L-468,772c1-.49,1.59-1.68,2.9-1.58A2.07,2.07,0,0,0-464.37,770.51Z" transform="translate(481.89 -755.45)"/><path class="cls-98" d="M-468.22,773.48l1.63,1.38a2.86,2.86,0,0,1-1.55,1.83c-1.25.11-.9-1.17-1.46-1.66l0,0Z" transform="translate(481.89 -755.45)"/><path class="cls-66" d="M-480.69,797.6l0.55-.11,2.22-.74a1.36,1.36,0,0,1,.42,1.41c-1,1.41-.58,2.39,1,3,1.53-.11,1.31,3.43,3.61,1.71a4.24,4.24,0,0,1,2.68-.17c0.41,0.62.42,1.47,1.11,1.93a1.78,1.78,0,0,1,.6,1.25,14.75,14.75,0,0,0,.09,5.26,9.41,9.41,0,0,1,.25,1c0.55,0.79-.39,2.2,1.11,2.56,1-.62,2.25-1,3.13-0.07,1.12,1.18-.39,1.66-1,2.29-1.08,1.14-.18,2,0.19,3.05,1.11,3.1,4,5.09,5.12,8.16a1.91,1.91,0,0,1-1.55,1.29c-2.68-.09-4.8,1.51-7.15,2.4a5.29,5.29,0,0,1-1.91.68,2.9,2.9,0,0,1-1.85-.71,9.6,9.6,0,0,1-1.88-2.21c-0.27-.39-0.54-0.79-0.8-1.19a9.65,9.65,0,0,1-1.1-2.19,24.64,24.64,0,0,0-2-4.07,7.9,7.9,0,0,1-1.4-3.87c-0.25-1.21-.56-2.4-0.91-3.59-0.31-1.64-.86-3.24-1-4.91a13.18,13.18,0,0,1-.62-3.49,28,28,0,0,1,.33-6.15A2.91,2.91,0,0,1-481,799Z" transform="translate(481.89 -755.45)"/><path class="cls-99" d="M-477.85,798.24l-0.07-1.49c-0.29-2.65,1.35-4.33,3-6a1.8,1.8,0,0,1,0-2.09c0.87-1,1.63-.46,2.39.16a2.6,2.6,0,0,1,.55,1.51,3.55,3.55,0,0,1-.17,1,14.75,14.75,0,0,1-1.64,2.48,5.67,5.67,0,0,1-.69.65,4.87,4.87,0,0,0-1.77,2.58,3.21,3.21,0,0,1-.73,1.23A0.86,0.86,0,0,1-477.85,798.24Z" transform="translate(481.89 -755.45)"/><path class="cls-100" d="M-472.61,789.21l-2.28-.53a1.73,1.73,0,0,0-.6-0.22,1.69,1.69,0,0,1,.82-2.21,1.58,1.58,0,0,0,2,0,2,2,0,0,1,.61.9A2,2,0,0,1-472.61,789.21Z" transform="translate(481.89 -755.45)"/><path class="cls-101" d="M-474.67,786.25l-0.82,2.21a2.78,2.78,0,0,1-.06-3.72Z" transform="translate(481.89 -755.45)"/><path class="cls-102" d="M-472.63,785.49c-2-.26-1.33-1.82-1.46-3a2.34,2.34,0,0,1,2.34-1.52c0.37,0.29.84,0.4,1.2,0.72,1,0.88,2.3,1.23,3.11,2.3,1.18,2.83-.23,4.41-2.68,5.47A2.46,2.46,0,0,1-471.5,788C-472,787.17-471.34,785.89-472.63,785.49Z" transform="translate(481.89 -755.45)"/><path class="cls-103" d="M-471.1,781.88l-0.66-.89,0.69-1.4,1.58-1.5a1.17,1.17,0,0,1,1.47-.27c1.1,1.42,2.42,2.72,2.63,4.64a2.06,2.06,0,0,1-.41,1,2,2,0,0,1-2.06.16C-468.85,782.89-470.13,782.68-471.1,781.88Z" transform="translate(481.89 -755.45)"/><path class="cls-104" d="M-468.21,778l-1.27,0c-1.52-1,.12-2-0.1-3.06l1.39,1.49a1.51,1.51,0,0,1,1.76,1A1,1,0,0,1-468.21,778Z" transform="translate(481.89 -755.45)"/><path class="cls-105" d="M-472.63,785.49c3.34-1.14,1.19,1.38,1.51,2.26-0.79.38-1.07-.25-1.44-0.72l-0.07-.75Q-472.63,785.88-472.63,785.49Z" transform="translate(481.89 -755.45)"/><path class="cls-106" d="M-452.3,772.17c-0.54.88-1.41,0.62-2.2,0.62-0.47.38-1.2,0.21-1.58,0.77h0l-0.48.27-0.52-.17a1.28,1.28,0,0,1-.45-1.46c2.23,0.56,1.88-1.76,2.88-2.57l0.75,0.14c1-.77,1.73-0.32,2.39.52A1.57,1.57,0,0,1-452.3,772.17Z" transform="translate(481.89 -755.45)"/><path class="cls-107" d="M-453.11,765.13c0.91,0.55,1.57,1.23,1.26,2.42a0.75,0.75,0,0,1-1.08.64C-453.63,767.2-454.57,766.24-453.11,765.13Z" transform="translate(481.89 -755.45)"/><path class="cls-108" d="M-452.94,768.18l1.08-.64c0.2,0.63.22,1.37,1,1.66a1.07,1.07,0,0,1-.76,1.22l-2.25-.67Z" transform="translate(481.89 -755.45)"/><path class="cls-109" d="M-457.51,772.18l0.65,1.34a1.91,1.91,0,0,1-2,1.32,2.27,2.27,0,0,1-1-.35,2,2,0,0,1-.13-1.93,3,3,0,0,1,.84-1.21l1.45-.26Z" transform="translate(481.89 -755.45)"/><path class="cls-110" d="M-459.12,771.36v1.47a15.77,15.77,0,0,1-2.49,1.24c-1.81.39-2.25-.91-2.71-2.19l0.69-.78,1.16,0.25,2-.17Z" transform="translate(481.89 -755.45)"/><path class="cls-111" d="M-451.62,770.43l0.76-1.22,0.89-.89c0.77,0.61.53,1.49,0.61,2.28-0.74,1-1.28,2.33-2.95,1.56Z" transform="translate(481.89 -755.45)"/><path class="cls-112" d="M-397.52,776.35a1.31,1.31,0,0,0,.6-0.06,2.71,2.71,0,0,1,1.61,2.41c0,0.16,0,.31,0,0.47-0.07,1-.25,1.94-1.5,2.1a3.76,3.76,0,0,1-1.75-.85,5.84,5.84,0,0,1-1.66-1.88A1.78,1.78,0,0,1-400,777,3.24,3.24,0,0,1-397.52,776.35Z" transform="translate(481.89 -755.45)"/><path class="cls-113" d="M-393.75,780.25V781c0.79,0.67,1.48,1.36.61,2.45-1.23.44-1.85-.24-2.31-1.23a5.08,5.08,0,0,1,0-3.44l0.11-.09Z" transform="translate(481.89 -755.45)"/><path class="cls-114" d="M-397.52,776.35c-0.51,1-1.43.89-2.31,0.89a0.86,0.86,0,0,1-.77-1l0.73-1.88c1.42-.65,1.59.73,2.22,1.37A1.59,1.59,0,0,1-397.52,776.35Z" transform="translate(481.89 -755.45)"/><path class="cls-115" d="M-397.66,775.73l-2.22-1.37a3,3,0,0,1-.76-2.28l0.76-.09C-399.47,773.44-397.31,773.84-397.66,775.73Z" transform="translate(481.89 -755.45)"/><path class="cls-116" d="M-400.6,776.25l0.77,1-0.11,1.48c-1.11,1-2.84.7-3.83,1.91a2.06,2.06,0,0,1-1.56-.15c-1-1.2-3.13-2.06-1.26-4.13,1.61-.07,2.51-1.36,3.68-2.17C-401.1,773.7-401.67,775.88-400.6,776.25Z" transform="translate(481.89 -755.45)"/><path class="cls-117" d="M-403,798.21c1.08-.66,1.66.1,2.27,0.79a1.81,1.81,0,0,1,1.41,1,15.51,15.51,0,0,1,.22,6.58,3.23,3.23,0,0,1-.48,1.09c-1.2,1.29-.27,3.09-1.06,4.48,0,3.16-2.77,5.35-2.95,8.45-1.15.88-1.74,2.3-3,3.05a2.68,2.68,0,0,1-2.25,1.59c-3.31.57,0.83,1.33,0,2,0.14,1.63-1.05,2.55-1.93,3.64a8,8,0,0,1-4.75,2.28c-3.06-1.95.28-2.81,0.75-4.28a32.52,32.52,0,0,1-4.73-2.73,2.39,2.39,0,0,0-2,.23c-2.12,1-2.56-.05-2.23-1.94a12.08,12.08,0,0,1,1.95-.72c-0.34.34-1.32,0.18-2,.8-0.56.94-1.29,1.2-2,.27-0.61-.77-0.09-1.36.59-1.79s1.54-.36,2.16-1.05c0.39-.14-0.57-0.31-0.36.15,0,0.08-.08.11-0.31,0.2a1.17,1.17,0,0,1-1,0c-1.12-1.52-2.41-3-.55-4.88a3.82,3.82,0,0,1,2.65-.33c1.6,0.67,1.67-.25,1.49-1.44a4.51,4.51,0,0,1,.83-1.78,6.7,6.7,0,0,0,1.27-2c0.24-.59.45-1.18,0.66-1.78a7.73,7.73,0,0,1,.82-1.76,2.31,2.31,0,0,1,.72-0.65c1.06-.38,2.23,0,3.28-0.48a10,10,0,0,0,2.46-1.4c1.2-.81,2.17-2,3.67-2.34a3.69,3.69,0,0,0,2.44-1.9,10.13,10.13,0,0,0,1-2.63A1.1,1.1,0,0,1-403,798.21Z" transform="translate(481.89 -755.45)"/><path class="cls-118" d="M-411.22,830.42c0.29-1.42,1.63-2.06,2.36-3.15,0.8-.47,1.56-1.22,2.55-0.37a8.78,8.78,0,0,0,.84,2,10.74,10.74,0,0,0,1.23,1.9,5.68,5.68,0,0,1,.52.78c0.31,0.45.52,1.07,1.27,0.67,1.16-1.86,2.49-3.47,4.75-4l2.24,0.72c0.93,0.79.46,1.62,0.08,2.44a3.37,3.37,0,0,1-1.11,1.09c-1.48.72-2.81,1.59-3.24,3.35a5.37,5.37,0,0,1-.38,1,2.79,2.79,0,0,1-.71.77,3.41,3.41,0,0,1-1.53.43c-1.67.12-2.52-1.05-3.41-2.16-1.55-1.21-2.25-3.39-4.43-3.9C-410.81,831.64-411.5,831.34-411.22,830.42Z" transform="translate(481.89 -755.45)"/><path class="cls-119" d="M-391.65,784.83v1.49c0.11,2.62-1.45,5.24.36,7.88,1,1.47-.66,2.69-1.09,4-0.24.6-2.06-1.42-1.41,0.94,0.35,1.26.43,3-1.34,3.73a1.73,1.73,0,0,1-1-1.26,9,9,0,0,1-.23-1.58c-0.09-1.75-1.05-3.15-1.91-4.59a3.13,3.13,0,0,1-.51-2.5,6.53,6.53,0,0,1,2.67-3.09c0.86-.63,1.87-1.17,1.44-2.54-0.15-1.51,0-2.88,1.52-3.72A1.69,1.69,0,0,1-391.65,784.83Z" transform="translate(481.89 -755.45)"/><path class="cls-120" d="M-395.34,802.75c1.17-1.06.73-2.47,0.69-3.73-0.09-3,1.29-1.2,2.28-.79a8.82,8.82,0,0,1-7.33,10.51,1,1,0,0,1-.14-1.56l-0.05.11c0.9-2.27.17-4.64,0.43-6.94,0.28-1.19,1-.81,1.75-0.53a3.39,3.39,0,0,1,1.13,1.12C-396.27,801.62-396.21,802.47-395.34,802.75Z" transform="translate(481.89 -755.45)"/><path class="cls-121" d="M-406,829.08c-2.39-.43-0.18-1.46-0.29-2.18,3.21-1.66,5.78.72,8.62,1.38-1.25,1.91-3.88,2.7-4.32,5.27-2,.51-1.54-1.62-2.48-2.22l0.05,0C-405.09,830.68-405,829.52-406,829.08Z" transform="translate(481.89 -755.45)"/><path class="cls-122" d="M-390.77,818.51l0.77,0.89a1.18,1.18,0,0,1,.82,1.54c-0.38,1.07-.56,2.28-1.74,2.87a2.12,2.12,0,0,1-1,.2l-0.44-.24A12.52,12.52,0,0,1-390.77,818.51Z" transform="translate(481.89 -755.45)"/><path class="cls-123" d="M-406.59,823.68c0.1-1.91,1.59-2.44,3-3.05C-404.22,822-404.3,823.93-406.59,823.68Z" transform="translate(481.89 -755.45)"/><path class="cls-124" d="M-392,817.48a15.92,15.92,0,0,1-.81-1.37c-0.23-.52-0.18-1,0.54-0.91,0.49,0,1.41-.34,1.12.78A7.71,7.71,0,0,1-392,817.48Z" transform="translate(481.89 -755.45)"/><path class="cls-125" d="M-392.21,825.23c-0.42.6-.69,1.38-1.6,1.43-0.09-1.26.07-2.39,1.47-2.88l-0.07,0A1.11,1.11,0,0,1-392.21,825.23Z" transform="translate(481.89 -755.45)"/><path class="cls-126" d="M-399.84,807.2l0.14,1.56c-0.34,1.13.24,2.52-.93,3.43C-400.4,810.51-401.35,808.66-399.84,807.2Z" transform="translate(481.89 -755.45)"/><path class="cls-127" d="M-388.52,796a3.68,3.68,0,0,1,.07,4.42Z" transform="translate(481.89 -755.45)"/><path class="cls-128" d="M-388.47,807.3a2.71,2.71,0,0,1,0,3.65Z" transform="translate(481.89 -755.45)"/><path class="cls-129" d="M-391.65,784.83l-1.46-1c-0.27-.09-0.37-0.21-0.31-0.34a0.31,0.31,0,0,1,.22-0.23l-0.57-2.21c1.16-.14,1.37,1.07,2.14,1.5Q-391.64,783.67-391.65,784.83Z" transform="translate(481.89 -755.45)"/><path class="cls-130" d="M-418.58,771.11a2.49,2.49,0,0,1-3.11-.51,1.37,1.37,0,0,1,.57-0.72l1.06-.16c0.86-.42,1.57-0.57,1.5.78Q-418.57,770.81-418.58,771.11Z" transform="translate(481.89 -755.45)"/><path class="cls-131" d="M-418.56,770.51a1.7,1.7,0,0,0-1.51-.78l0.65-.77C-418.53,769.15-417.45,769.23-418.56,770.51Z" transform="translate(481.89 -755.45)"/><path class="cls-132" d="M-417.08,771.94l-0.83-.62,0.8-.07Q-417.11,771.6-417.08,771.94Z" transform="translate(481.89 -755.45)"/><path class="cls-133" d="M-411.87,773.5h-0.74l-0.6-1.35C-412.17,772-411.9,772.64-411.87,773.5Z" transform="translate(481.89 -755.45)"/><path class="cls-134" d="M-414.06,773.44a1.42,1.42,0,0,1-1.61-.57l1.54-.13Q-414.1,773.09-414.06,773.44Z" transform="translate(481.89 -755.45)"/><path class="cls-135" d="M-429.86,761.49l2.13,0.76,0.34,1.48-0.32,2.09a1.6,1.6,0,0,1-2.26.37,3.4,3.4,0,0,1-.83-2.38A2.94,2.94,0,0,1-429.86,761.49Z" transform="translate(481.89 -755.45)"/><path class="cls-136" d="M-429.77,765.88l2.07-.05,0.06,1.59a1.63,1.63,0,0,1-2.3.15l-1.48-.18a2.83,2.83,0,0,0,.08-0.6A1.66,1.66,0,0,1-429.77,765.88Z" transform="translate(481.89 -755.45)"/><path class="cls-137" d="M-421.12,769.89l-0.57.72c-1.27,0-2.46-.18-3-1.6Z" transform="translate(481.89 -755.45)"/><path class="cls-138" d="M-424.6,769.06l-4.33-.24c0.17-1.68,1.23-.76,2-0.68C-426.15,768.43-425,767.76-424.6,769.06Z" transform="translate(481.89 -755.45)"/><path class="cls-139" d="M-426.94,768.14l-2,.68-1-.6a4.22,4.22,0,0,0,0-.65l2.3-.15Z" transform="translate(481.89 -755.45)"/><path class="cls-140" d="M-406.59,776.34c-1.4,2,1.69,2.34,1.49,3.91-1.81,1.08-2.18-.65-3-1.52l-0.76-3.77,2.26,0.76Q-406.6,776-406.59,776.34Z" transform="translate(481.89 -755.45)"/><path class="cls-141" d="M-408.1,778.73c1,0.47,1.68,1.63,3,1.52l1.55,0.08a2.23,2.23,0,0,1,.6.76c0.3,1.47,1.42,2.5,2.08,3.78a2.39,2.39,0,0,1-.09,1.88c-0.52.92-1.29-.16-1.88,0.23a29.57,29.57,0,0,1-5.3-7.39Z" transform="translate(481.89 -755.45)"/><path class="cls-142" d="M-429.86,761.49v2.21c-0.35,1.82-1.63,2.27-3.25,2.21h-0.33l1.34-5.12,2.24,0.07Q-429.86,761.17-429.86,761.49Z" transform="translate(481.89 -755.45)"/><path class="cls-117" d="M-459.86,827.88c-2.56-1.85-4.09-4.51-5.55-7.19-1.18-2.16-2.74-4.5,1.81-5.25-1.73-1.11-2.67-.44-3.64.06-1.36-.91-0.92-2.61-1.65-3.79l0.06,0.1a10.28,10.28,0,0,1,0-6l-0.57-.76c-1.13-1.4-.15-3-0.45-4.49a23.09,23.09,0,0,1,.28-4c0.16-.71.36-1.41,0.49-2.13a10.15,10.15,0,0,1,.49-2.06c0.57-1.07,1.11-2.16,1.66-3.24a2.27,2.27,0,0,1,1.25-.89c2.2,0.36,4.23,1.66,6.69.73,1.16-.44,2.18.79,2.92,1.8,1.52,2.92.16,6.26,1.29,9.2,1.1,0.36,2.1-3.11,3.21,0,1.26,3.58,2.53,1.53,3.76-.08,1-1,1.73-.39,2.48.31a2.43,2.43,0,0,1,.37,1.05c0,1.91-1.57,2.13-2.81,2.71a1.35,1.35,0,0,0-.45,1.72c-0.29,1.23,1.27,1.9,1,3.14a3.42,3.42,0,0,1-1,1.81,4.69,4.69,0,0,1-2.29,1.15,4.2,4.2,0,0,0-2.41,1.55,2.16,2.16,0,0,1-2-.35,3.63,3.63,0,0,1-1.7-1.95c-0.38-3.84-.38-3.84-2.63-2.83-0.54.91-1.33,0.49-2.08,0.34a4.44,4.44,0,0,0,2,.52,2.36,2.36,0,0,1,.8.58c0.8,1,1.45,2.16,2.17,3.25,0.21,0.25.4,0.51,0.59,0.77,1.34,1.81,3.44,2.47,5.28,3.52,2.24,1.4,2.41,4.66,5.39,5.62,1.27,0.41.43,1.79-.6,2.53s-2.31-.35-2.91,1a4.12,4.12,0,0,1-.56.81c-0.71,1-2.06.49-2.92,1.21,0.22,1.74,1.55,2.34,2.88,2.94a2.37,2.37,0,0,1,.8.68c0.1,1.57-.92,2.27-2.16,2.81a3.85,3.85,0,0,1-1.61.1,4.26,4.26,0,0,1-1.86-.87,21.65,21.65,0,0,0-2.37-1.73c-0.92-.7-1.73-1.53-2.63-2.26C-459.67,829.47-460.41,828.91-459.86,827.88Z" transform="translate(481.89 -755.45)"/><path class="cls-143" d="M-456.11,790.75c-1.59-.2-2.83-1.55-4.88-0.31-1.27.77-3.35-.8-4.81-1.93-1.32.4-.83-0.44-0.71-1a20.23,20.23,0,0,1,2-2.86,0.78,0.78,0,0,1,.91.09c0.56,0.85,1.23.52,2,.24,1.51-.58,3.28-2.84,4,1,0.34,1.78,2.83.07,3.83,1.54C-455.38,787.93-455.44,789.54-456.11,790.75Z" transform="translate(481.89 -755.45)"/><path class="cls-144" d="M-436.49,781c1.12-.77-1.27-2.62.81-2.95,1.6-.25,1.44,1.7,2.47,2.45,0.93-.48-0.36-2.48,1.18-2.31,1.29,0.15.91,1.57,0.88,2.45,0,1-.51,2.09-0.52,3.14,0,0.65.74,1.42-.46,1.64a1.47,1.47,0,0,1-1.47-.91c-0.44-.69-1-1.33-1.43-2C-436.51,783-435.75,781.28-436.49,781Z" transform="translate(481.89 -755.45)"/><path class="cls-145" d="M-444.92,797.62l0.81-.23c0.82-.31,1.52-0.85,2.34-1.15a3.73,3.73,0,0,1,2.07,0c1.59,0.46,2.28,2,3.41,3,0.61,0.57,1.41,1,1.36,2a2.87,2.87,0,0,1-1.62,1.23,3,3,0,0,1-1.52,0c-1.1-.36-2.1-1-3.17-1.4a9,9,0,0,1-2.55-1.41C-444.33,799.07-445.07,798.59-444.92,797.62Z" transform="translate(481.89 -755.45)"/><path class="cls-146" d="M-426.11,785.38c-3,.57-3.78-0.81-3.88-3.72-0.11-3.17,1.23-3.85,3.88-3.51a1.35,1.35,0,0,1,.33,1.4,3.5,3.5,0,0,0,0,4.43A1.39,1.39,0,0,1-426.11,785.38Z" transform="translate(481.89 -755.45)"/><path class="cls-147" d="M-448.55,780.91a2.32,2.32,0,0,0,1.07-.13c0.88-.7-0.44-3.35,1.91-2.57,1.51,0.5.76,2.4,0.65,3.56-0.13,1.4,1.44,4.16-2.12,3.69-1-.82-1.33-2-1.95-3.09A1.43,1.43,0,0,1-448.55,780.91Z" transform="translate(481.89 -755.45)"/><path class="cls-148" d="M-426.72,795.33c1.32,0.24,2.34-.69,3.55-0.89,1.61-.79,3.18-0.12,4.77.09a4.5,4.5,0,0,1,1.91,1,1.09,1.09,0,0,1,.24,1,2.89,2.89,0,0,1-2.4,1c-0.69.05-1.38,0-2.07,0s-1.29,0-1.93,0a3.62,3.62,0,0,0-2.5.8,2,2,0,0,1-1.38.17,1.3,1.3,0,0,1-.68-0.66C-427.33,797-427.82,796-426.72,795.33Z" transform="translate(481.89 -755.45)"/><path class="cls-149" d="M-422.45,793.74a3.62,3.62,0,0,1-.47-0.94c2-1.78,8.5-.08,9.53,2.44a1.75,1.75,0,0,1-2,.4,1.55,1.55,0,0,0-2.2-.69A9.16,9.16,0,0,1-422.45,793.74Z" transform="translate(481.89 -755.45)"/><path class="cls-150" d="M-448.55,780.91l0,1.67a2,2,0,0,1-.12,2.88c-1.14.1-2.31,0.29-2.19-1.5a25,25,0,0,1,.05-3c0.2-1-1-2.86,1.08-2.91S-449,780-448.55,780.91Z" transform="translate(481.89 -755.45)"/><path class="cls-151" d="M-423,778l1.35,0a2,2,0,0,1,1.28,1.42c0,0.78-.23,1.61.43,2.28,0.17,0.8-.55,1.06-0.93,1.53-0.17.75,0.35,1.8-.86,2.1s-1.45-.49-1.57-1.41A4.83,4.83,0,0,1-423,778Z" transform="translate(481.89 -755.45)"/><path class="cls-152" d="M-415.45,795l2.06,0.21,2.34-.69c1.09,0.62,2.15,1.25,1.94,2.78s-2,.52-2.65,1.34a2.72,2.72,0,0,1-1,0c-1.35-.6-2.82-1-3.63-2.44V796C-416.52,795.21-416.17,794.94-415.45,795Z" transform="translate(481.89 -755.45)"/><path class="cls-153" d="M-426.11,785.38l0-1.45a3.62,3.62,0,0,1,0-4.36l0-1.43,1.42,0.65c2,1.48,1.28,3.33.73,5.16Z" transform="translate(481.89 -755.45)"/><path class="cls-154" d="M-420.82,779.59l-0.79-1.49c1.74-.1,3.59-0.38,4.42,1.72s-1.06,2.57-2.19,3.48l0.06-.06-1.51.1,0.7-1.43A2.77,2.77,0,0,0-420.82,779.59Z" transform="translate(481.89 -755.45)"/><path class="cls-155" d="M-444.92,797.62l1.49,1.41a3.27,3.27,0,0,1-2.25,1.61c-0.74-.19-1.24-1.14-2.18-0.71-2.57-1.13-2-2.16.09-3.15l0,0.05Z" transform="translate(481.89 -755.45)"/><path class="cls-156" d="M-409.5,797.27l-1.54-2.71,4.2-.72a4.59,4.59,0,0,1,1.13,2.91,4.26,4.26,0,0,1-3,1.12A0.82,0.82,0,0,1-409.5,797.27Z" transform="translate(481.89 -755.45)"/><path class="cls-157" d="M-441.92,784.73c-3.57-.86-2.32-3.13-1.53-5.26a1.4,1.4,0,0,1,1.88.09A4.24,4.24,0,0,1-441.92,784.73Z" transform="translate(481.89 -755.45)"/><path class="cls-158" d="M-441.92,784.73l0.15-5.19a1.77,1.77,0,0,1,1.79-.32c1.65,1.93,1.75,3.77-.3,5.49Z" transform="translate(481.89 -755.45)"/><path class="cls-159" d="M-432.05,793c0.79,0.07,1.73-.23,2.08.88a22.19,22.19,0,0,1-2.3,2,6.42,6.42,0,0,1-2.19,1.39,3,3,0,0,1-1.6,0,1.83,1.83,0,0,1-.84-0.66c-0.47-1.94,1-2.52,2.27-3.22A4.32,4.32,0,0,1-432.05,793Z" transform="translate(481.89 -755.45)"/><path class="cls-160" d="M-442.59,792.76c2,0,4.11-1.58,6,.26,0.13,2.17-1.68,1.63-2.82,2a7.44,7.44,0,0,1-1,.16,4,4,0,0,1-2-.29,1.63,1.63,0,0,1-.65-0.78A1.25,1.25,0,0,1-442.59,792.76Z" transform="translate(481.89 -755.45)"/><path class="cls-161" d="M-447.77,796.77c-2.25-.08-4.63.11-5.82-2.9,2.55,0.21,4.52.87,5.78,3Z" transform="translate(481.89 -755.45)"/><path class="cls-162" d="M-440.28,784.71c0.67-1.81,1.32-3.62-.1-5.39v-0.43c2.21-.7,2.55.61,2.24,2.26C-438.4,782.55-436.79,785.22-440.28,784.71Z" transform="translate(481.89 -755.45)"/><path class="cls-163" d="M-408.82,797.46c0.77-1.23,2.07-.43,3.06-0.79a0.38,0.38,0,0,1,.67-0.09,2.63,2.63,0,0,1,2.1,1.63l-0.66.72c-1.18,1.18-2.41.81-3.65,0.14A3.55,3.55,0,0,1-408.82,797.46Z" transform="translate(481.89 -755.45)"/><path class="cls-164" d="M-458.35,777.29c-0.78,1.68-2.31,2.64-3.64,3.81a0.85,0.85,0,0,1-1,.07,1.77,1.77,0,0,1-.4-1.44A9,9,0,0,1-462,777a2,2,0,0,1,1.17-.81,4.07,4.07,0,0,1,2.24.68Z" transform="translate(481.89 -755.45)"/><path class="cls-165" d="M-439.64,794.47c0.78-1,2.75.5,3.09-1.44l1.31-.17a1,1,0,0,1,.87.9c-0.72.89-2.26,1.14-2.14,2.7a1,1,0,0,1-1.32.68A3.2,3.2,0,0,1-439.64,794.47Z" transform="translate(481.89 -755.45)"/><path class="cls-166" d="M-462.86,781l0.88,0.1c0,1.44-2.11,2-1.64,3.62l-0.77.07c-0.43.59-.83,1.28-1.72,0.61a1.65,1.65,0,0,1,.18-2l0.43-.69C-465,781.56-464.41,780.51-462.86,781Z" transform="translate(481.89 -755.45)"/><path class="cls-167" d="M-434.37,793.75l-0.87-.9-1.74-.9c1.76-.19,3.62-0.93,4.93,1A3,3,0,0,1-434.37,793.75Z" transform="translate(481.89 -755.45)"/><path class="cls-168" d="M-459.08,774.38l2.23-.85h0a3.59,3.59,0,0,1,.64.68c0.17,1.65-1.2,2.22-2.15,3.09l-0.11-.33C-459.26,776.24-460,775.51-459.08,774.38Z" transform="translate(481.89 -755.45)"/><path class="cls-169" d="M-442.59,792.76v1.74a1.2,1.2,0,0,1-1.54.92l-2.52-.36C-445.29,793.92-444.38,792.65-442.59,792.76Z" transform="translate(481.89 -755.45)"/><path class="cls-170" d="M-426.72,795.33c-0.2,1,.74,2.06-0.35,2.91a2.87,2.87,0,0,1-2.83-.53,1.19,1.19,0,0,1-.14-0.94c1.55,0,.34-1.95,1.55-2.2Z" transform="translate(481.89 -755.45)"/><path class="cls-171" d="M-436.49,781c1.38-.35.63,1.35,1.46,1.52-0.22,1,.28,2.16-1.07,3.29A8.55,8.55,0,0,1-436.49,781Z" transform="translate(481.89 -755.45)"/><path class="cls-172" d="M-428.5,794.57c-0.55.66,0.43,2.23-1.3,2.18a1.77,1.77,0,0,1-2.07.35c-0.82-.67-0.35-1.27.1-1.87a3.33,3.33,0,0,1,1.95-.78Z" transform="translate(481.89 -755.45)"/><path class="cls-173" d="M-422.45,793.74l5.31,0.79c0.22,0.7,0,1-.75.81l-5.29-.9Z" transform="translate(481.89 -755.45)"/><path class="cls-174" d="M-424,784c0-1.76.49-3.58-.73-5.16L-423,778l-0.29,6A5.8,5.8,0,0,1-424,784Z" transform="translate(481.89 -755.45)"/><path class="cls-175" d="M-399.89,799.8l-0.83-.8,0.14-4.53,0.51-.06c1.4,1.14,1.15,2.75,1.2,4.27A2.16,2.16,0,0,1-399.89,799.8Z" transform="translate(481.89 -755.45)"/><path class="cls-176" d="M-419.38,783.29c1.06-.08,1.95.17,2.12,1.39a0.71,0.71,0,0,1-.93.78c-1.34-.21-1.2-1.26-1.13-2.23Z" transform="translate(481.89 -755.45)"/><path class="cls-177" d="M-448.69,785.46l0.12-2.88c2.5-.1,1,1.92,1.53,2.88h-1.65Z" transform="translate(481.89 -755.45)"/><path class="cls-178" d="M-401.93,791.48c0.13-1.4-2.11-2.24-.93-3.89,1.19-.15,1.52.77,1.95,1.57a2.62,2.62,0,0,1-.11,2.13A0.66,0.66,0,0,1-401.93,791.48Z" transform="translate(481.89 -755.45)"/><path class="cls-179" d="M-401.49,789.3l-1.36-1.71a1.87,1.87,0,0,1,0-.61l0.23-.95,1.22,0.95a1.84,1.84,0,0,1,.88,2.36A0.76,0.76,0,0,1-401.49,789.3Z" transform="translate(481.89 -755.45)"/><path class="cls-180" d="M-444.14,795.42l1.54-.92,0,0a2.47,2.47,0,0,1,.87,1.74c0,0.17,0,.33,0,0.5-0.49,1.23-1.44.84-2.33,0.67A1.38,1.38,0,0,0-444.14,795.42Z" transform="translate(481.89 -755.45)"/><path class="cls-181" d="M-401.93,791.48a1.33,1.33,0,0,1,.52,0,0.84,0.84,0,0,1,.92-0.24,2,2,0,0,1,1.05,1.7,1.84,1.84,0,0,1-1.22,1.55l0.09,0C-402.06,793.95-401.12,792.32-401.93,791.48Z" transform="translate(481.89 -755.45)"/><path class="cls-182" d="M-429.82,794.45a1.79,1.79,0,0,1-1.65.86,0.94,0.94,0,0,1-1.39-.06,3.56,3.56,0,0,1,2.89-1.39Q-429.91,794.16-429.82,794.45Z" transform="translate(481.89 -755.45)"/><path class="cls-183" d="M-456.09,778.79l-0.92,2.94C-457.61,780.82-457.75,780-456.09,778.79Z" transform="translate(481.89 -755.45)"/><path class="cls-184" d="M-440.38,778.89a1,1,0,0,0,0,.43l-1.38.22-1.67-.07C-442.7,777.82-441.66,777.71-440.38,778.89Z" transform="translate(481.89 -755.45)"/><path class="cls-185" d="M-405.09,796.58l-0.33.09h-0.34a3.74,3.74,0,0,1-1.08-2.83C-405.52,794.28-405.34,795.46-405.09,796.58Z" transform="translate(481.89 -755.45)"/><path class="cls-186" d="M-450.94,791.91a1.79,1.79,0,0,1-.47.58,5.82,5.82,0,0,1-1.15-.65,5,5,0,0,1,.87-0.57C-451.29,791.11-451,791.31-450.94,791.91Z" transform="translate(481.89 -755.45)"/><path class="cls-187" d="M-456.08,773.56a1.42,1.42,0,0,1,1.58-.77A1.36,1.36,0,0,1-456.08,773.56Z" transform="translate(481.89 -755.45)"/><path class="cls-188" d="M-456.2,774.19l-0.64-.68,0.79,0A0.92,0.92,0,0,1-456.2,774.19Z" transform="translate(481.89 -755.45)"/><path class="cls-189" d="M-433.1,765.91c1-.89,2.61-0.82,3.25-2.21l0.08,2.18a1.66,1.66,0,0,1-1.57.9Z" transform="translate(481.89 -755.45)"/><path class="cls-190" d="M-464.33,771.88c0.85,0.73,1.35,2.1,2.89,1.59a1.44,1.44,0,0,1,.37,1.63c-1.42,1.75-2.95,1.94-4.61.34l-0.15-.58A3,3,0,0,0-464.33,771.88Z" transform="translate(481.89 -755.45)"/><path class="cls-191" d="M-466.62,777.42c-0.56-.25-1.3-0.17-1.58-0.9a1.62,1.62,0,0,1,1.62-1.65h0.75l0,0.23a1.31,1.31,0,0,1,.38,1.38A1.64,1.64,0,0,1-466.62,777.42Z" transform="translate(481.89 -755.45)"/><path class="cls-192" d="M-458,829.74c0.69,0.73,1.66,1.23,1.9,2.33s-0.69,1.45-1.26,2c-3.45,2-1.24,4,.07,6a13.5,13.5,0,0,1-2.38,2.59,1.9,1.9,0,0,1-1.49.17,2.6,2.6,0,0,1-.81-0.6,5.79,5.79,0,0,0-2.64-2.11,3.2,3.2,0,0,1-.8-0.59,4.13,4.13,0,0,0-1.94-2,7.35,7.35,0,0,1-1.27-1.41c-0.51-.61-1.1-1.15-1.56-1.81-0.26-.74-0.91-1.44-0.26-2.28l1.52-.78a8,8,0,0,1,2.36.95c1.38,0.56,1.68,3.28,3.6,2.25,1.2-.64,1.24-2.59,2.06-3.83A2,2,0,0,1-458,829.74Z" transform="translate(481.89 -755.45)"/><path class="cls-193" d="M-460.51,831.26a25.3,25.3,0,0,0-1.18,3,2.38,2.38,0,0,1-1.66,2c-1.33.23-1.6-.75-1.95-1.71-0.62-1.72-3-1.57-3.63-3.36,2.54-.93,4.54-3.63,7.75-2.33A1.64,1.64,0,0,1-460.51,831.26Z" transform="translate(481.89 -755.45)"/><path class="cls-194" d="M-468.1,794.56a1.48,1.48,0,0,1-.84,1.48c-0.63,1.42-.15,2.92-0.31,4.38a2.07,2.07,0,0,1-1.16,2.33,1.9,1.9,0,0,1-2.15.06l-0.3-.36a2.65,2.65,0,0,1,0-.94,10.21,10.21,0,0,0,.1-1.93c0-1.24-.07-2.47-0.08-3.7,0.05-1.51-.06-3.07,1.16-4.26,1.06-.73,1.69,0,2.33.69S-468.69,793.9-468.1,794.56Z" transform="translate(481.89 -755.45)"/><path class="cls-194" d="M-472.56,802.8c-0.15.77,0.13,1.8-1,2a1.59,1.59,0,0,1-1.89-1.26c-0.28-.87-0.62-1.55-1.65-1.58-0.94-1.32.12-1.85,1-2.47a2.49,2.49,0,0,1,1.49-.26,1.83,1.83,0,0,1,.84.5,3.44,3.44,0,0,1,.41.86c0.22,0.71.05,1.56,0.77,2.08Z" transform="translate(481.89 -755.45)"/><path class="cls-195" d="M-475.63,799.78c-0.48.75-1.6,1.07-1.49,2.22-0.63-1.18-5.18-1.58-.74-3.75h0.72C-475.88,798-474.66,797.83-475.63,799.78Z" transform="translate(481.89 -755.45)"/><path class="cls-196" d="M-480.28,814.8a0.69,0.69,0,0,1-.55-0.12q-0.43-.19-0.31-0.43a0.35,0.35,0,0,1,.26-0.25,6.44,6.44,0,0,1-.73-3.74l1.35-.73,0.76,5.24Q-479.87,815.32-480.28,814.8Z" transform="translate(481.89 -755.45)"/><path class="cls-197" d="M-474.93,825.91c-1.42.54-1.3-1.19-2.16-1.48a0.46,0.46,0,0,1-.27-0.44q0-.28.11-0.28c0.36-.69-1.13-1.46.09-2.11Z" transform="translate(481.89 -755.45)"/><path class="cls-198" d="M-481,806.45a7.88,7.88,0,0,1,0-6.65v6.65Z" transform="translate(481.89 -755.45)"/><path class="cls-199" d="M-470.44,832l0.92,2.06c0.2,0.5.13,0.88-.49,1a1,1,0,0,1-1-.79c0.46-1.25-2-1.65-.88-3.1Z" transform="translate(481.89 -755.45)"/><path class="cls-200" d="M-468.88,805.8l0,6A5.42,5.42,0,0,1-468.88,805.8Z" transform="translate(481.89 -755.45)"/><path class="cls-201" d="M-470.41,802.74l0.9-2.24c0.18-.33.37-0.35,0.55,0,0.43,1.58-1.19,2.93-.49,4.54C-472.1,805.24-469.76,803.37-470.41,802.74Z" transform="translate(481.89 -755.45)"/><path class="cls-202" d="M-468.89,811.71c1.16,1,1.2,2.48,1.65,3.79C-469.62,815-468.67,813.11-468.89,811.71Z" transform="translate(481.89 -755.45)"/><path class="cls-203" d="M-470,816.16c-0.38-1.69-1.3-2.51-.82-3.8C-469.72,813.23-469.45,814.23-470,816.16Z" transform="translate(481.89 -755.45)"/><path class="cls-204" d="M-460.51,831.26l-0.67-2.34,1.32-1,1.85,1.86C-459.3,829.48-459.65,830.8-460.51,831.26Z" transform="translate(481.89 -755.45)"/><path class="cls-205" d="M-480.28,814.8l0.77,0c1,1.06.74,2.55,1.27,3.77C-479.89,817.82-479.55,816-480.28,814.8Z" transform="translate(481.89 -755.45)"/><path class="cls-206" d="M-475.63,799.78c0.36-1.36-1.14-.89-1.5-1.53l0-1.51a2.72,2.72,0,0,1,2.28-.54,2,2,0,0,1,1.39,1.84,2.12,2.12,0,0,1-.63,1.66Z" transform="translate(481.89 -755.45)"/><path class="cls-207" d="M-472.56,787l1.44,0.72a1.64,1.64,0,0,1,.76,1.5,0.79,0.79,0,0,1,.23.85,2.38,2.38,0,0,1-1.55,1.07,1.17,1.17,0,0,1-.83-0.41l-0.1-1.55Z" transform="translate(481.89 -755.45)"/><path class="cls-208" d="M-474.06,798.33a1.75,1.75,0,0,0-.92-1.63,2.41,2.41,0,0,1,0-2.9l0.82,0a2.24,2.24,0,0,1,1.8,1.61,6.1,6.1,0,0,1,.07,1C-472.37,797.5-472.56,798.53-474.06,798.33Z" transform="translate(481.89 -755.45)"/><path class="cls-209" d="M-474.94,793.81q0,1.45,0,2.9l-2.13,0C-476.53,795.65-476.24,794.36-474.94,793.81Z" transform="translate(481.89 -755.45)"/><path class="cls-210" d="M-472.67,795.24l-1.45-1.46a2.34,2.34,0,0,1,1.46-2.27A3.74,3.74,0,0,1-472.67,795.24Z" transform="translate(481.89 -755.45)"/><path class="cls-211" d="M-472.67,795.24q0-1.87,0-3.73l0.16-.75,0.75,0a1,1,0,0,1,.68.87c-1.16,1.27-.58,2.89-0.86,4.34q-0.3.5-.59,0Z" transform="translate(481.89 -755.45)"/><path class="cls-212" d="M-470.48,789.92a2.79,2.79,0,0,1,.11-0.67c1.38-1.51,3.66-2.65,2.14-5.32l0.07-.46,2.22-.1q0.05,1.11.11,2.22a0.73,0.73,0,0,1,.21.59,0.37,0.37,0,0,1-.11.32c-1.43,1-1.61,3-3,4C-469.45,790.7-470.41,791.65-470.48,789.92Z" transform="translate(481.89 -755.45)"/><path class="cls-213" d="M-468.16,783.46a2.12,2.12,0,0,1-.07.46c-0.9-.77-2.71-0.26-2.87-2.05A3.23,3.23,0,0,1-468.16,783.46Z" transform="translate(481.89 -755.45)"/><path class="cls-214" d="M-466.62,777.42l0.6-.58c1.14,0.28,1.37,1.6,2.36,2a2.13,2.13,0,0,1,.67.59l0.12,1.52-2.65,1.67c-0.62-1.7-2.85-2.47-2.7-4.62Z" transform="translate(481.89 -755.45)"/><path class="cls-215" d="M-459.08,774.38l0.62,2.58a1.58,1.58,0,0,1-2.16-.55,1.09,1.09,0,0,1-.26-1.38,1.52,1.52,0,0,1,1.14-.94A1.84,1.84,0,0,1-459.08,774.38Z" transform="translate(481.89 -755.45)"/><path class="cls-216" d="M-459.76,774.1l-0.95.95a0.38,0.38,0,0,1-.64-0.22l-0.1-1.36c0.51-1.17,1.48-.65,2.31-0.63Z" transform="translate(481.89 -755.45)"/><path class="cls-217" d="M-403.55,781a4.79,4.79,0,0,1,0-.67c0-3.14,2.44-1,3.62-1.62a1.35,1.35,0,0,1,1.54,1.35l-0.21.42a2.75,2.75,0,0,1-1.35.32,11.72,11.72,0,0,0-2.26.64A1.44,1.44,0,0,1-403.55,781Z" transform="translate(481.89 -755.45)"/><path class="cls-218" d="M-398.4,780.07l1.69,0.89a1.67,1.67,0,0,1,.45.89,2.91,2.91,0,0,1-.12,1,1.64,1.64,0,0,1-.68.75,1.82,1.82,0,0,1-1.51-.13c-1.23-1.12-.88-2.13.21-3.1Z" transform="translate(481.89 -755.45)"/><path class="cls-219" d="M-396.68,781.79l0-.83,1.29-2.17,0.65,2.93A1.24,1.24,0,0,1-396.68,781.79Z" transform="translate(481.89 -755.45)"/><path class="cls-220" d="M-396.68,781.79l1.9-.07a1.57,1.57,0,0,0,1.58,1.51,0.71,0.71,0,0,1,.08.57L-394,787c0.91,1.5.13,1.78-1.2,1.66-1.94-1.72-.77-4.19-1.52-6.2A0.94,0.94,0,0,1-396.68,781.79Z" transform="translate(481.89 -755.45)"/><path class="cls-221" d="M-449.32,826.1c1,0.11-.78-3.48,1.85-1.31,1,0.79,1.67-.34,3.34-1.58-4.93.58-4.47-3.64-6.73-5.13-0.17-.73.41-1.1,0.76-1.59a5,5,0,0,1,.65-0.68c0.59-.5,1.4-0.6,2-1.1,0.78-.8.9-1.94,1.46-2.86a2.33,2.33,0,0,1,.72-0.63,32,32,0,0,0,4.26-2.16,8.89,8.89,0,0,0,1.78-1.48c0.55-.57,1-1.2,1.56-1.79a4,4,0,0,1,2.74-1.09c2.51,1.37.27,3.31,0.61,4.94,0.05,0.3.1,0.6,0.16,0.9a19.16,19.16,0,0,0,1,2,3.27,3.27,0,0,1-.54,2.6,4.46,4.46,0,0,1-.57.68c-0.47.66,0,1,.45,1.4,1.06,0.55,2.2.87,3.25,1.37,1.46,0,1.93-1.63,3.22-1.88a1.83,1.83,0,0,1,2.06,1.23c-1.1,1.66.93,2.76,0.75,4.25-0.71,1.31-3.17,1.61-2.22,3.88a2.77,2.77,0,0,1-.91.58,9.57,9.57,0,0,1-2.73.3c-0.73,0-1.45,0-2.18,0-0.35,0-.71,0-1.06,0a19.86,19.86,0,0,0-2.56.06c-2.36.72-2.05,3-2.74,4.69,0.42,0.9,2.32,1.28,1.37,2.54s-2.44.85-3.69,0.19a3,3,0,0,1-1.67-2.28c-0.29-1.52,1.15-3.35-.81-4.56-1.32-.13-2.64-0.28-4-0.42A1.94,1.94,0,0,1-449.32,826.1Z" transform="translate(481.89 -755.45)"/><path class="cls-222" d="M-442.61,832.14a3.8,3.8,0,0,0,4.73,1.91c-0.25-1.6-2.76,0-2.5-2,1-1.38,2.43-1.21,3.85-1.05,0.84,0,1.69.07,2.53,0.06,0.33,0,.66,0,1,0a20.43,20.43,0,0,0,2.42-.2,2.22,2.22,0,0,1,1,.24,3.76,3.76,0,0,0,2.79.8c2,0.95,3.83,1.33,5.2-1,3.8-.38,1.83-3,1.81-4.79a1.69,1.69,0,0,1,.48-0.92l6.13,4c-0.87,1.24-3.78.91-2.47,3.53,0.55,1.72-.82,2.21-1.87,2.91-1.35.5-2.63,1.14-4,1.65a29.46,29.46,0,0,1-3.69,1c-1.62.56-3.35,0.59-5,1.14a34.18,34.18,0,0,1-5.84.26c-1.5-.08-3,0.36-4.49-0.29-2.35-.86-4.76-1.52-7.17-2.18a6.73,6.73,0,0,1-1.92-1c-0.61-.58-1.62-0.94-1.24-2.1l2.25-2.11c0.81-1.22,2.16-1,3.34-1.28a3.18,3.18,0,0,1,2,.46A1.77,1.77,0,0,1-442.61,832.14Z" transform="translate(481.89 -755.45)"/><path class="cls-223" d="M-416.35,796.21c1.17,0.82,3,.4,3.76,2,0.62,1.35.71,3.17,2.81,3.25,1.43,0.37,2.68.89,2.37,2.75l-3.68,2.33a2.07,2.07,0,0,0-2.27,1.34c-1.15,1.66-2.5-.12-3.72.22a2,2,0,0,1-.52-2.43,2.31,2.31,0,0,1,.64-0.78,1,1,0,0,0,.42-0.47,1.47,1.47,0,0,0-.64.67c-0.94,1.13-1.4,2.67-2.92,3.26a1.4,1.4,0,0,1-1.73-.72c-1-1.21,1.72-2.61-.21-3.77-2.84-2.25-.12-3.12,1.07-4.38,0.64-1,.7-2.5,2.33-2.6C-417.9,796.63-417,797-416.35,796.21Z" transform="translate(481.89 -755.45)"/><path class="cls-224" d="M-417.89,835a4.59,4.59,0,0,0,2.19-2.24l4.48-2.35a1.76,1.76,0,0,0,1.62.84,2.26,2.26,0,0,1,0,2,2.39,2.39,0,0,1-.84,1.25c-1.78.34-3,1-1.18,2.78a24.65,24.65,0,0,0,2.84,2.35,6.32,6.32,0,0,1,1.53,1.27,1.43,1.43,0,0,1,0,1,38.37,38.37,0,0,1-3.12,2.45,2.51,2.51,0,0,1-1,.17c-1.31-.24-2-1.23-2.84-2.15-1.9-1.75-1.81-4.69-3.82-6.38A0.81,0.81,0,0,1-417.89,835Z" transform="translate(481.89 -755.45)"/><path class="cls-225" d="M-419.36,825.25l0,0.83c-1.64,1.27-1.62,3.73-3.46,4.87a2.61,2.61,0,0,1-1,.06c-2.39-.69-0.71-3.81-2.8-4.68l-0.26-.41c-1.71-2.79,1.06-2.77,2.32-3.7,0.92-1.22,2-1.05,3.27-.38-1.41.67-2.61,1.24-3.8,1.83-0.57.28-.67,0.8-0.11,1.06a2.86,2.86,0,0,0,1.37-.22h0c0.49,1.12.87,2.33,2.35,0.78C-421,824.74-420.09,824.2-419.36,825.25Z" transform="translate(481.89 -755.45)"/><path class="cls-226" d="M-407.42,804.21a3.25,3.25,0,0,0-2.84-2.39c-1.3-.85-2.13-1.91-1.58-3.58,0.29-1.51,1.81,0,2.34-1a2.75,2.75,0,0,0,.68.19l1.46,0.79c0.44,1.74,3.5,1.31,3.09,3.75C-405.24,802.85-405.47,804.75-407.42,804.21Z" transform="translate(481.89 -755.45)"/><path class="cls-227" d="M-420,813.81a1.87,1.87,0,0,1-.82,1.69c-0.87.37-.76,1.72-1.87,1.85a3.1,3.1,0,0,1-2.69-.74c-0.49-1.56-1.74-2.69-2.42-4.14a1.67,1.67,0,0,1,.91-1.68c1.56-.41,2.26,1,3.32,1.59,0.66,0,1.27-.3,1.92-0.33a2.09,2.09,0,0,1,1.65.88A0.94,0.94,0,0,1-420,813.81Z" transform="translate(481.89 -755.45)"/><path class="cls-228" d="M-420.1,813.2l-1.53-.83A4.79,4.79,0,0,1-423,811c-0.66-1.12-1.95-2.27.16-3.26,1.55,1,3.57,1.21,4.94,2.59,0.08,0.63.18,1.28-.66,1.5S-419.4,813-420.1,813.2Z" transform="translate(481.89 -755.45)"/><path class="cls-229" d="M-404.28,802c-1.09-.86-1.72-2.26-3.46-2.33-0.88,0-.87-0.34.37-1.43a5.13,5.13,0,0,0,3.72.68C-403.7,800-403.27,801.14-404.28,802Z" transform="translate(481.89 -755.45)"/><path class="cls-230" d="M-425.28,816.25a4.26,4.26,0,0,0,2.93.73,0.58,0.58,0,0,1,0,.75l-3,.24-2.22-.82c-1.53.37-2.5,0-2.28-1.82C-428,814.16-426.6,814.94-425.28,816.25Z" transform="translate(481.89 -755.45)"/><path class="cls-231" d="M-417.9,810.33c-2.3.43-3.66-1.16-5.16-2.43a0.62,0.62,0,0,1-.21-0.5,0.31,0.31,0,0,1,.08-0.28,1.46,1.46,0,0,1,.81-0.29,0.89,0.89,0,0,1,.68.47c0.28,0.83.89,0.79,1.56,0.62a2.79,2.79,0,0,1,3,.8Z" transform="translate(481.89 -755.45)"/><path class="cls-232" d="M-417.13,808.72a3.79,3.79,0,0,1-3-.8c1-1,1.34-2.64,3-2.91h0l0,3.09A1.71,1.71,0,0,1-417.13,808.72Z" transform="translate(481.89 -755.45)"/><path class="cls-233" d="M-422.37,817.72q0-.37,0-0.75c0.22-.77-0.09-2.09,1.49-1.48-0.4,1,1.63,1.46.66,2.5A1.29,1.29,0,0,1-422.37,817.72Z" transform="translate(481.89 -755.45)"/><path class="cls-234" d="M-399.89,799.8l0.6-.76,0.38,0.07a0.53,0.53,0,0,1-.09.68c-0.57,2.47.79,5.18-.89,7.52Q-399.89,803.55-399.89,799.8Z" transform="translate(481.89 -755.45)"/><path class="cls-235" d="M-413.37,807.88c-0.93-1.47.59-1.64,1.24-2.13,0.89-.67.93,0.19,1,0.79A3.79,3.79,0,0,1-413.37,807.88Z" transform="translate(481.89 -755.45)"/><path class="cls-236" d="M-420.1,813.2c0.28-.71-0.18-2.25,1.53-1.37-0.24.85,0.7,2.58-1.48,2A1.92,1.92,0,0,0-420.1,813.2Z" transform="translate(481.89 -755.45)"/><path class="cls-225" d="M-423.86,824.5a3.86,3.86,0,0,1,3.85-1.34,5.35,5.35,0,0,1-3.85,1.34h0Z" transform="translate(481.89 -755.45)"/><path class="cls-237" d="M-410.36,832.75c-0.47-.87.73-0.88,0.76-1.5,2.73-.21,2.28,3.24,4.35,3.79,1,1.29.62,2.4-.73,2.95s-1.75,1.72-2.91,2.18c-2.21-.38-3.05-2.52-4.67-3.67-0.78-.56-0.4-1.23,0-1.93,0.87-1.55,1.93-1.16,3.07-.43C-409.35,833.78-409.95,833.26-410.36,832.75Z" transform="translate(481.89 -755.45)"/><path class="cls-238" d="M-402.27,837.29l-1.48.81c-0.91,1.36-1.25,3.45-3.67,2.89a1.49,1.49,0,0,1-1.47-.82c0.34-1.48,0-3.38,2.72-2.95,1.48,0.24.95-1.29,0.93-2.18C-404.19,835.69-404.15,837.71-402.27,837.29Z" transform="translate(481.89 -755.45)"/><path class="cls-239" d="M-396.94,832c-0.37,2-1.78,3-3.58,3.55A4,4,0,0,1-396.94,832Z" transform="translate(481.89 -755.45)"/><path class="cls-240" d="M-404.5,831.33l2.48,2.22C-404.5,834.65-404,832.38-404.5,831.33Z" transform="translate(481.89 -755.45)"/><path class="cls-240" d="M-406,829.08c1.73-.06,1.7,1.09,1.58,2.3C-405.9,831.24-405.68,830-406,829.08Z" transform="translate(481.89 -755.45)"/><path class="cls-241" d="M-400.61,836.5l0.75,0.75h0a0.53,0.53,0,0,1-.75,0l-0.06-.1A6.16,6.16,0,0,0-400.61,836.5Z" transform="translate(481.89 -755.45)"/><path class="cls-242" d="M-399.69,793l-1-1.41a2.41,2.41,0,0,1,.52-0.76c1.16-.93.82-2.24,0.87-3.45a6.29,6.29,0,0,1,.08-1.07c0.31-1.19.75-2.2,2.3-1.78,0.86,0.66.75,1.61,0.79,2.52a4,4,0,0,0,.91,2.82,0.67,0.67,0,0,1-.22.85c-1.52.11-1.64,2-2.94,2.35A0.86,0.86,0,0,1-399.69,793Z" transform="translate(481.89 -755.45)"/><path class="cls-243" d="M-399.69,793l1.32,0.07,0.81,2.26,0,0.51c-0.15,1.2.57,2.8-1.46,3.13l-0.24.09c-1.17-1.29.37-3.4-1.37-4.53Z" transform="translate(481.89 -755.45)"/><path class="cls-244" d="M-397.56,795.32a6.82,6.82,0,0,1,2.1,4.3,1.73,1.73,0,0,1-2.13-.44,4.22,4.22,0,0,1,.06-3.88Z" transform="translate(481.89 -755.45)"/><path class="cls-245" d="M-395.43,790.71l0-.78a0.93,0.93,0,0,1-.15-1.12l0.33-.24A1.28,1.28,0,0,0-394,787C-392,789.25-394.85,789.53-395.43,790.71Z" transform="translate(481.89 -755.45)"/><path class="cls-246" d="M-392.63,796.27c-0.83.2-1.11-.42-1.48-0.84a1.58,1.58,0,0,1-.16-1.93c0.41,0.45.77,0.83,1.11,1.22A1.36,1.36,0,0,1-392.63,796.27Z" transform="translate(481.89 -755.45)"/><path class="cls-247" d="M-396.89,799.08l1.43,0.54q0,0.84,0,1.68a1,1,0,0,1-1.47,0l-0.7-.79A1.57,1.57,0,0,1-396.89,799.08Z" transform="translate(481.89 -755.45)"/><path class="cls-248" d="M-396.91,801.29h1.47l0.09,1.46C-397.16,803.66-396.83,802.25-396.91,801.29Z" transform="translate(481.89 -755.45)"/><path class="cls-249" d="M-396.89,799.08a1.37,1.37,0,0,1-.71,1.42l-1.4-.71,0-.84c1.33-.88,0-2.87,1.51-3.65C-397.39,796.57-398.13,798-396.89,799.08Z" transform="translate(481.89 -755.45)"/><path class="cls-250" d="M-398.37,787.72c-0.36,1.3.94,3.25-1.44,3.77a2,2,0,0,1-.85-2.23L-401.4,787l0.06-2.11a2.6,2.6,0,0,1,3-1.69l1.51,0a1.11,1.11,0,0,1-.06,1.61c-1.64,0-1.38,1.17-1.44,2.18C-399,787.26-399,787.49-398.37,787.72Z" transform="translate(481.89 -755.45)"/><path class="cls-251" d="M-398.38,783.18c-1.06.44-1.67,1.67-3,1.69-1.46-.88-2.71-1.87-2.21-3.87l1.5-.2a6.31,6.31,0,0,1,.58.36,0.77,0.77,0,0,0,.62-0.33,3,3,0,0,1,1-.58l1.51,0.13C-398.39,781.31-399,782.24-398.38,783.18Z" transform="translate(481.89 -755.45)"/><path class="cls-252" d="M-438.87,808l-1.36,1.53c-2.07.66-4.23-.13-6.31,0.36a1.29,1.29,0,0,1-1-1.08c0.11-1.21-2.45-1.33-1.21-3a1.35,1.35,0,0,1,1.55-1c0.91,1.39,1.44-1.14,2.32-.26,1.67,0.56,3.3,1.23,5,1.82C-439.3,806.76-438.53,807-438.87,808Z" transform="translate(481.89 -755.45)"/><path class="cls-253" d="M-444.73,831.28c-1,1.5-2.68.17-3.88,0.86a1.09,1.09,0,0,0-.65-0.18c-1.6-1.68-1.11-3.43-.2-5.2a1,1,0,0,0,.14-0.66l1.45,0.67C-447.35,828.63-443.21,828-444.73,831.28Z" transform="translate(481.89 -755.45)"/><path class="cls-221" d="M-449.46,826.76l0.2,5.2a3.54,3.54,0,0,1-3.9-3.39C-453.38,826.15-450.52,827.86-449.46,826.76Z" transform="translate(481.89 -755.45)"/><path class="cls-254" d="M-459,810a0.79,0.79,0,0,0-.14-0.46c-0.51-.37-0.24-1.16-0.8-1.5,0.09-.95-0.62-2.69,1.44-1.91,1.42,0.54,3.42.95,2.77,3.35-0.13.47-.27,0.94-0.41,1.41C-457.55,812-458.21,810.78-459,810Z" transform="translate(481.89 -755.45)"/><path class="cls-255" d="M-449.41,817c-0.14.82-.89,0.85-1.46,1.11A14.78,14.78,0,0,1-456.7,814c1-1.52,2.25-.76,3.46-0.31a7.51,7.51,0,0,1,2.06,1.16A4.78,4.78,0,0,1-449.41,817Z" transform="translate(481.89 -755.45)"/><path class="cls-256" d="M-445.52,811.87a3.53,3.53,0,0,1-1.65,3.37c-1.13-.65-2-1.61-3.1-2.35a1.61,1.61,0,0,1-.6-1.78l2.25-.85C-447.49,810.62-446.19,810.66-445.52,811.87Z" transform="translate(481.89 -755.45)"/><path class="cls-257" d="M-445.68,800.63a2.3,2.3,0,0,1,2.25-1.61l2.33,1.45a1.24,1.24,0,0,1-.43,2,3.62,3.62,0,0,1-2.3.28,2.1,2.1,0,0,1-1.65-1.47A0.91,0.91,0,0,1-445.68,800.63Z" transform="translate(481.89 -755.45)"/><path class="cls-258" d="M-469,790.07c0.81-1.42,1.4-3,3-3.8a0.89,0.89,0,0,1,.09,1.46,3.63,3.63,0,0,0-.21.59,0.9,0.9,0,0,0,.29.19l-0.9.77a8.58,8.58,0,0,1-1.37,2.87l0,2.4a2.67,2.67,0,0,1-1.51-1.54C-470.06,791.9-469.35,791-469,790.07Z" transform="translate(481.89 -755.45)"/><path class="cls-259" d="M-445.47,801.25l1.32,0.73c1,0.88,2.48.85,3.62,1.51,0.62,0.35,1.23.71,1,1.59a2.31,2.31,0,0,1-.9.55,5.27,5.27,0,0,1-3.5-.73,3.49,3.49,0,0,0-3.24-.39,1.34,1.34,0,0,1-1.47-1C-447.76,802.48-445.37,803.63-445.47,801.25Z" transform="translate(481.89 -755.45)"/><path class="cls-260" d="M-450.86,811.11l0.76,1.39c0.15,1.58-.94,1.71-2.08,1.77a2.66,2.66,0,0,1-1.12-1.13C-453.32,811.47-452.62,810.66-450.86,811.11Z" transform="translate(481.89 -755.45)"/><path class="cls-261" d="M-457.66,833.22l1.55-1.15a2.49,2.49,0,0,1,2.22,1.49,1.17,1.17,0,0,1,.06,1.61C-455.74,835.78-456.91,834.9-457.66,833.22Z" transform="translate(481.89 -755.45)"/><path class="cls-262" d="M-460,808.06a1.34,1.34,0,0,1,.8,1.5,4.71,4.71,0,0,1-1.08,0c-1.17-.28-2.39-0.71-2.79-1.88a0.94,0.94,0,0,1,1.77-.32C-460.94,807.77-460.82,808.59-460,808.06Z" transform="translate(481.89 -755.45)"/><path class="cls-263" d="M-445.52,811.87c-1.09-.43-2.72.18-3.1-1.62l1.09-1.43,1,0.78c1.09,0.41,1.61,1.05.91,2.2Z" transform="translate(481.89 -755.45)"/><path class="cls-264" d="M-459,810c1,0.07,1.63,1.46,2.85.88l1.57,1.5a2.2,2.2,0,0,1-2.16.87A6.14,6.14,0,0,1-459,810Z" transform="translate(481.89 -755.45)"/><path class="cls-265" d="M-448.63,803.49l1.39,0.77a0.4,0.4,0,0,1,.21.48,0.31,0.31,0,0,1-.2.24l-1.51.85c-0.67-.43-1.65-0.67-1.39-1.77C-449.93,803.24-449.17,803.57-448.63,803.49Z" transform="translate(481.89 -755.45)"/><path class="cls-266" d="M-456,829.92c-0.8-1.08-1.93-1.28-1.59-2.32a1.38,1.38,0,0,1,1.28-.37C-455.23,827.73-455.87,828.63-456,829.92Z" transform="translate(481.89 -755.45)"/><path class="cls-267" d="M-456.75,813.27l2.16-.87,1.29,0.74,0.87,0.83a0.52,0.52,0,0,1-.83.15,5.19,5.19,0,0,0-3.45-.16A0.72,0.72,0,0,1-456.75,813.27Z" transform="translate(481.89 -755.45)"/><path class="cls-268" d="M-453.85,834.95l0-1.39,1.64,0.77a1.31,1.31,0,0,1,.79,1.63,1.58,1.58,0,0,1-1.24.8C-453.53,836.44-454.4,836.15-453.85,834.95Z" transform="translate(481.89 -755.45)"/><path class="cls-269" d="M-451.52,835.68l-0.72-1.35,1.39-.08,1.62,1.51C-450.06,837.46-450.79,836.48-451.52,835.68Z" transform="translate(481.89 -755.45)"/><path class="cls-270" d="M-469,800.5h-0.55c0-1.51-.69-3.11.57-4.46Z" transform="translate(481.89 -755.45)"/><path class="cls-271" d="M-468.08,792.16a4.67,4.67,0,0,1,1.37-2.87C-466.45,790.58-466.41,791.78-468.08,792.16Z" transform="translate(481.89 -755.45)"/><path class="cls-272" d="M-465.88,787.73l-0.09-1.46a2.84,2.84,0,0,0,.15-0.69l1.42-.8A3.15,3.15,0,0,1-465.88,787.73Z" transform="translate(481.89 -755.45)"/><path class="cls-273" d="M-435.13,810.21c-1.51-1.7,2.15-3.49-.08-5.18-0.56.23-.76-0.1-0.88-0.56a2,2,0,0,0-.18-1.52,1.55,1.55,0,0,1-.27-1.15l1.37-.6c0.84-1,2.56-.66,3.21-2,0.68-.61.61-2.17,2.13-1.68a3.79,3.79,0,0,1,2.75.73h0.29c-0.53,1.79,1.77,2.16,1.82,3.66a2.49,2.49,0,0,1-1.46,1.94c-0.56.33-1.15,0.6-1.72,0.9a7.61,7.61,0,0,0-2.15,1.77,10.63,10.63,0,0,0-3,3.21C-433.81,810.2-434.34,810.69-435.13,810.21Z" transform="translate(481.89 -755.45)"/><path class="cls-274" d="M-436.54,801.8l0.71,0.88c0.48,0.53,0,1.12.09,1.67l0.53,0.68c-0.33,1.16-2,.24-2.3,1.47a1,1,0,0,1-1.71-.31,14.64,14.64,0,0,1,0-3.45,0.85,0.85,0,0,1,1-.81Z" transform="translate(481.89 -755.45)"/><path class="cls-275" d="M-431.39,799.75c-0.43,2.64-2.36,1.36-3.77,1.45l-1.48-1.46c-0.13-1.13.7-1.26,1.49-1.45A4.56,4.56,0,0,1-431.39,799.75Z" transform="translate(481.89 -755.45)"/><path class="cls-276" d="M-435,798.94a1.88,1.88,0,0,0-1.64.8c-1.83-.15-1.77-2.31-3.14-3a1.44,1.44,0,0,1,1.82-.15l1.46-.19a1.68,1.68,0,0,0,.59.37C-435.23,797.36-434.65,798-435,798.94Z" transform="translate(481.89 -755.45)"/><path class="cls-277" d="M-438,796.64l-1.81.15-2-.07-0.08,0c-1-1.86.78-1.65,1.57-2.18a3.86,3.86,0,0,1,.65-0.1A2.66,2.66,0,0,1-438,796.64Z" transform="translate(481.89 -755.45)"/><path class="cls-278" d="M-438.28,801.93l-0.71.77a1.82,1.82,0,0,1-.93.64c-1,0-2,.19-2-1.3a1.61,1.61,0,0,0,.83-1.58A5.65,5.65,0,0,1-438.28,801.93Z" transform="translate(481.89 -755.45)"/><path class="cls-279" d="M-426.14,779.57q0,2.18,0,4.36c-2,.23-1.58-1.25-1.66-2.37S-427.76,779.35-426.14,779.57Z" transform="translate(481.89 -755.45)"/><path class="cls-280" d="M-425.27,802c-0.44-1.28-3-1.69-1.52-3.75l1.34,0c0.9-.56,1.91-0.15,2.85-0.32a2.46,2.46,0,0,1,1.78.65,10.53,10.53,0,0,1,.69,1.24,1.42,1.42,0,0,1-1.23,1.48c-2.35.47-1,1.42-.26,2.28a0.78,0.78,0,0,1-.71,1.07C-423.88,804.38-424.48,803.07-425.27,802Z" transform="translate(481.89 -755.45)"/><path class="cls-281" d="M-422.37,798.25c-1.06,1.39-2.06.32-3.08-.06,0.18-1.5,1.18-1.57,2.35-1.35A1.57,1.57,0,0,1-422.37,798.25Z" transform="translate(481.89 -755.45)"/><path class="cls-281" d="M-420.12,799.76l-0.74-.77a1.57,1.57,0,0,1,0-2.18l2.21,0.09C-419.83,797.5-419.64,798.8-420.12,799.76Z" transform="translate(481.89 -755.45)"/><path class="cls-282" d="M-420.87,796.8q0,1.09,0,2.18l-1.5-.73a1.46,1.46,0,0,1-.73-1.42Z" transform="translate(481.89 -755.45)"/><path class="cls-283" d="M-417.88,795.34l0.75-.81c0.75-.45,1.43-0.66,1.69.51l-0.9.94A1.53,1.53,0,0,1-417.88,795.34Z" transform="translate(481.89 -755.45)"/><path class="cls-284" d="M-420.82,779.59c1.91,0.27,2,1.09.69,2.31C-422,781.62-420.63,780.37-420.82,779.59Z" transform="translate(481.89 -755.45)"/><path class="cls-285" d="M-411.84,798.24c0.58,1.17,1.5,2.19,1.58,3.58-2.45-.18-3-1.08-2.34-3.61Z" transform="translate(481.89 -755.45)"/><path class="cls-286" d="M-435,798.94l-0.91-2.13,1.67-.24a2.21,2.21,0,0,1,2.07.08l2.38,0.09,0,0.76-1.57,2.24Z" transform="translate(481.89 -755.45)"/><path class="cls-287" d="M-432.18,796.66l-2.07-.08,1.38-1.33,1.39,0.06Z" transform="translate(481.89 -755.45)"/><path class="cls-288" d="M-440.3,794.57c-0.46.77-2.05,0.73-1.57,2.18-1-.49-0.65-1.47-0.77-2.28Z" transform="translate(481.89 -755.45)"/><path class="cls-289" d="M-461.35,774.83a4.52,4.52,0,0,0,.64.22l0.08,1.36-0.79.81c-1,.46-1.46,1.51-2.33,2.12-2.27.53-1.56-1.63-2.27-2.5l0.14-1.76C-464.33,775.75-462.8,776-461.35,774.83Z" transform="translate(481.89 -755.45)"/><path class="cls-290" d="M-463.75,779.34c-0.09-1.66.93-2.1,2.33-2.12a3.94,3.94,0,0,1-1.57,2.25Z" transform="translate(481.89 -755.45)"/><path class="cls-291" d="M-400.66,789.26l0.85,2.23-0.87.08a2.57,2.57,0,0,0-.73-0.06l-0.09-2.21Z" transform="translate(481.89 -755.45)"/><path class="cls-292" d="M-417.89,835l0.12,1a10.27,10.27,0,0,0,1.26,4.07,5.32,5.32,0,0,0,.67,2.06c0.86,0.26,1.67-1,2.53-.07l1.8,1.95c1,0.29.32,0.71,0.08,1.09-0.72.52-1.62,0.66-2.37,1.12a14.88,14.88,0,0,1-3.29,1.55,21.79,21.79,0,0,0-3.93,1.34c-1.19.36-2.45,0.4-3.64,0.81a25.91,25.91,0,0,1-3.25.42c-0.75.12-1.45,0.41-2.2,0.53a7,7,0,0,1-1.17.14,54,54,0,0,1-7.67-.17,14.23,14.23,0,0,0-3.16-.61c-0.67,0-1.33-.09-2-0.15a4.77,4.77,0,0,1-.94-0.18,2.34,2.34,0,0,1-.78-0.48c-0.39-.76-0.49.37-0.8,0.13a4.45,4.45,0,0,1-1.8-.3,4.22,4.22,0,0,0-2.59-.38,1.82,1.82,0,0,1-.89-0.29c-0.89-.9-1.63-2-3-2.29a9.14,9.14,0,0,1-.95-0.37c-1.5-1-4-.88-4-3.53a2,2,0,0,1,2.06-2.11c1.16,0.42,2.29,1,3.6.74a3.18,3.18,0,0,1,1.94.51c0.79,0.59.87,1.81,1.93,2.15,1.45,0.46,2.89,1,3.32-1.3a7.07,7.07,0,0,1,2.07-3.85,1.8,1.8,0,0,1,1.61,0,2.29,2.29,0,0,1,1.22,1.77c-0.42,5.67-.42,5.67,4.78,6.47,0.86,0,1.71,0,2.56,0a12.25,12.25,0,0,1,6-2,9.26,9.26,0,0,0-.38-2.4,7.47,7.47,0,0,1-.05-2.17,2.62,2.62,0,0,1,.72-1.5,8.25,8.25,0,0,1,2.76-.24,1.33,1.33,0,0,1,.71.76c0.15,2.07,2.22,3.07,2.8,5,0.42-1.06-.37-1.91-0.46-2.86,0-1.15.59-2.23,0.4-3.4a2,2,0,0,1,.66-1.31Z" transform="translate(481.89 -755.45)"/><path class="cls-293" d="M-454.88,841.65c-1.54.74-2.56,0.37-2.9-1.39,0.27-1.83-.49-1.51-1.64-0.89a1.85,1.85,0,0,1-1.7-.08,1.4,1.4,0,0,1,.07-2c1.4-1.15,1-3.73,3.38-4.05,1.62-.19,2,2.33,3.81,1.73l1.42,1.65C-451.28,839.24-453.31,840.33-454.88,841.65Z" transform="translate(481.89 -755.45)"/><path class="cls-294" d="M-461.35,841.76l-1.47-.15c-1.18-.2-1.86-0.77-1.49-2.08C-462.68,839.41-462,840.61-461.35,841.76Z" transform="translate(481.89 -755.45)"/><path class="cls-295" d="M-464.32,839.53l1.49,2.08,0,0.17a1.85,1.85,0,0,1-2.33-.09l0.09-2.38Z" transform="translate(481.89 -755.45)"/><path class="cls-296" d="M-472.53,796h0.59q0,2.19,0,4.37c-1.06.86-1-1.83-2.12-.7v0q0-.69,0-1.38A3,3,0,0,0-472.53,796Z" transform="translate(481.89 -755.45)"/><path class="cls-297" d="M-469,790.07a3.8,3.8,0,0,1-.62,2.95l-1.46-1.35-0.68-.87,1.28-.88C-470.06,790.75-469.51,790.23-469,790.07Z" transform="translate(481.89 -755.45)"/><path class="cls-298" d="M-474.06,799.68c1-.76,1.46.32,2.12,0.7a1.64,1.64,0,0,1-.62,1.65,2.57,2.57,0,0,1-1.49-1.44v-0.9Z" transform="translate(481.89 -755.45)"/><path class="cls-299" d="M-474,800.59l1.49,1.44q0,0.35-.09.69C-474.16,802.7-474.15,801.67-474,800.59Z" transform="translate(481.89 -755.45)"/><path class="cls-300" d="M-402.12,781.73l0.07-.93a1.53,1.53,0,0,1,2.18-.56l-0.72.78C-401,781.39-401.26,782.25-402.12,781.73Z" transform="translate(481.89 -755.45)"/><path class="cls-301" d="M-396.93,784.84l0.06-1.61,0.19-.73c2.3,1.6.93,4,1.39,6.07h0c-0.88.42-1.13-.29-1.47-0.83Z" transform="translate(481.89 -755.45)"/><path class="cls-302" d="M-425.28,816.25l-4.53-.77a6.82,6.82,0,0,1-2.33.8,2.37,2.37,0,0,1-2.31-.87l0.69-2.78c1.67-1,3.55,0,5.27-.56a1.65,1.65,0,0,1,1,.41A3.3,3.3,0,0,1-425.28,816.25Z" transform="translate(481.89 -755.45)"/><path class="cls-303" d="M-444.73,831.28c-0.54-.73.68-2.88-1.3-2.28-3,.92-1.56-1.25-1.84-2.24,1.45-1.46,2.92.54,4.38,0,1.36,1.69,1.09,3.45.21,5.23Z" transform="translate(481.89 -755.45)"/><path class="cls-304" d="M-427,832.09c-1.7,1.86-2.61,1.33-3-1s1.69-3.3,2.22-5.09l0.77-.12,0.11,0.13c2.3,1.77,1.67,3.74.38,5.75Z" transform="translate(481.89 -755.45)"/><path class="cls-305" d="M-436.63,831.85l-3.75.22c1.43-1.9.47-5.3,3.76-6a4,4,0,0,1,.65.93,7,7,0,0,1,0,4A3.14,3.14,0,0,1-436.63,831.85Z" transform="translate(481.89 -755.45)"/><path class="cls-306" d="M-430.6,831.28c-0.49,1.06-1.45.61-2.25,0.71a4.52,4.52,0,0,1,.08-5.95l2.13,0.06a3.46,3.46,0,0,1,.64.9,3.75,3.75,0,0,1,.06,2.2C-430.26,829.86-430.09,830.68-430.6,831.28Z" transform="translate(481.89 -755.45)"/><path class="cls-307" d="M-453.26,814.13l0.83-.15,2.32-1.47a3.06,3.06,0,0,1,2.94,2.74l-2.07,1.17c-0.88-.1-1.23-1.62-2.42-0.89Z" transform="translate(481.89 -755.45)"/><path class="cls-308" d="M-445.58,811.81a3.17,3.17,0,0,0-.9-2.2c2.06-2.16,4.16-.07,6.25-0.05C-442,810.27-443.24,812.37-445.58,811.81Z" transform="translate(481.89 -755.45)"/><path class="cls-309" d="M-434.45,815.4l3,0.08c1.21,1.07,2.12,2.2.88,3.83-1.48,0-2.51-1-3.77-1.56a2.33,2.33,0,0,1-.36-2.53Z" transform="translate(481.89 -755.45)"/><path class="cls-310" d="M-436.57,826.84l0-.82h2.95a8.5,8.5,0,0,1,0,5.94l-2.92-.12a3,3,0,0,1,0-.67A3.31,3.31,0,0,0-436.57,826.84Z" transform="translate(481.89 -755.45)"/><path class="cls-311" d="M-430.6,819.32c0.4-1.44-.71-2.53-0.88-3.83,0.56,0,1.11-1,1.67,0,0.3,1.16,1.26,1.42,2.24,1.66,0.27,1.11-1.47.83-1.36,2.39S-430.06,820.17-430.6,819.32Z" transform="translate(481.89 -755.45)"/><path class="cls-312" d="M-428.56,812.52c-1.7,1.63-3.46.59-5.21,0.11l-1.32-1.6a2.47,2.47,0,0,1,2-.6c1,0.23,2.09.4,3.12,0.64A1.82,1.82,0,0,1-428.56,812.52Z" transform="translate(481.89 -755.45)"/><path class="cls-313" d="M-443.28,832l-0.21-5.23c0.3-.71,1.33-0.89,1.36-0.48,0.11,2,1.18,4.06-.47,5.88A2.23,2.23,0,0,0-443.28,832Z" transform="translate(481.89 -755.45)"/><path class="cls-314" d="M-430.6,831.28l0-2.38a1.25,1.25,0,0,0,0-2.06q0-.37-0.06-0.74l2.94-.07c0.84,2.38-1,3.62-2.22,5.09A1.73,1.73,0,0,0-430.6,831.28Z" transform="translate(481.89 -755.45)"/><path class="cls-315" d="M-436.39,819.08c0.48,0.94,1.43,1.74.68,2.82a1,1,0,0,1-1,.07C-437.78,820.88-436.26,820.1-436.39,819.08Z" transform="translate(481.89 -755.45)"/><path class="cls-316" d="M-433.71,832l0-5.94,0.91,0-0.08,5.95Z" transform="translate(481.89 -755.45)"/><path class="cls-317" d="M-438.9,805.69a1.46,1.46,0,0,0,1.39.8c0,0.92-.8,1.11-1.37,1.52l-1.5-.9a1.22,1.22,0,0,1,0-1.85l0.77-.25A1.82,1.82,0,0,1-438.9,805.69Z" transform="translate(481.89 -755.45)"/><path class="cls-318" d="M-434.73,815.23l0.36,2.53c-1.36,0-1.55-.91-1.55-1.91C-435.92,815-435.41,814.88-434.73,815.23Z" transform="translate(481.89 -755.45)"/><path class="cls-319" d="M-432.81,811l-2.27.07,0-.81,1.33-.75a1.17,1.17,0,0,1,1.94.49C-431.86,810.59-431.94,811.16-432.81,811Z" transform="translate(481.89 -755.45)"/><path class="cls-320" d="M-451.65,815.52c1.44-1.43,1.77.15,2.42,0.89a0.6,0.6,0,0,1-.17.55Z" transform="translate(481.89 -755.45)"/><path class="cls-321" d="M-423.14,830.49c1.74-1.06.28-4.84,3.76-4.42a8.64,8.64,0,0,1,.67,1.28c1.4,4.25,1.39,4.25-2.86,4.16C-422.48,831.75-423.2,831.71-423.14,830.49Z" transform="translate(481.89 -755.45)"/><path class="cls-322" d="M-454.88,841.65c-0.37-2.26,2.52-2.93,2.45-5l0.91-.92c0.77-.35,1.48,1.38,2.28.07l1.27,0.71c0.44,0.67,2.11.11,1.65,1.67a14.2,14.2,0,0,0-6.18,3.61Z" transform="translate(481.89 -755.45)"/><path class="cls-323" d="M-442.61,840.26l-0.76-1.37a2.61,2.61,0,0,1,3.08-.12c1.25,0.8,2.5-.3,3.75,0,1.1,0.77,2.4.08,3.56,0.47a0.91,0.91,0,0,1-.1,1.35c-0.79.63-1.29,1.55-2.15,2.11a2.86,2.86,0,0,1-1.95-.65C-438.74,840.69-441.12,841.83-442.61,840.26Z" transform="translate(481.89 -755.45)"/><path class="cls-304" d="M-423.14,830.49c0.21,0.82,1,.78,1.57,1-1.39,3.25-2,3.31-5.37.57l0.13-.12c0.74-.84,1.87-0.92,2.78-1.41Z" transform="translate(481.89 -755.45)"/><path class="cls-324" d="M-440.28,838.77l-3.08.12-1.51-.14c-0.76.44-1.06-.08-1.33-0.65l-1.77-1.63A30.23,30.23,0,0,1-440.28,838.77Z" transform="translate(481.89 -755.45)"/><path class="cls-325" d="M-421.59,836.49l-0.07,1.62a2.57,2.57,0,0,1-2.86,1.91,1.6,1.6,0,0,1-.85-0.6l-0.11-1.08a1,1,0,0,1,0-1Z" transform="translate(481.89 -755.45)"/><path class="cls-326" d="M-432.89,839.6c-1.16-.53-2.7.66-3.65-0.82l6.67,0a0.79,0.79,0,0,1-.2,1.07A2.25,2.25,0,0,1-432.89,839.6Z" transform="translate(481.89 -755.45)"/><path class="cls-327" d="M-429.9,839.27a0.58,0.58,0,0,1,0-.52c1.08-1.67,3.15-.25,4.39-1.41v1l-2.85.6C-428.82,839.24-429.17,840.16-429.9,839.27Z" transform="translate(481.89 -755.45)"/><path class="cls-328" d="M-422.41,804.25l0.8-.74c0.57-.16,1.28-0.6,1.68-0.4,0.72,0.36.24,1-.07,1.55-0.55.89-1.13,1.76-1.7,2.64a3.71,3.71,0,0,1-.63-0.16A2,2,0,0,1-422.41,804.25Z" transform="translate(481.89 -755.45)"/><path class="cls-329" d="M-417.12,805c-0.21-.84-1.32-2,0.19-2.37a1.78,1.78,0,0,1,1.74,1.83c-0.11,1.33-1.13.85-1.93,0.53h0Z" transform="translate(481.89 -755.45)"/><path class="cls-330" d="M-413.31,842c-1.33-.28-1.49,2.23-3.09,1.29-0.71-.92.28-2.19-0.63-3.07-0.77-1.33-3.42-2.34-.75-4.28,1.14-.07,2.18-0.23,2.22,1.53S-414.34,840.67-413.31,842Z" transform="translate(481.89 -755.45)"/><path class="cls-331" d="M-406.51,841.78l-1.24-.17q0.17-.31.32-0.63l3.67-2.89,0.1,1.4C-404.06,840.94-404.84,841.91-406.51,841.78Z" transform="translate(481.89 -755.45)"/><path class="cls-332" d="M-410.36,832.75c0.65,0.54,1.88.44,1.85,1.7l-2-.32Z" transform="translate(481.89 -755.45)"/><path class="cls-333" d="M-424,830.55c0,2.37-1.77,1.11-2.78,1.41,0.49-2,1.37-3.94,0-5.92,1.59-.22,3.06-0.41,2.27,2.09A2.26,2.26,0,0,0-424,830.55Z" transform="translate(481.89 -755.45)"/><path class="cls-334" d="M-423,807.28a1.5,1.5,0,0,0-.09.62c-1.06,1.33.86,1.95,0.74,3.05a3.74,3.74,0,0,1-1.56,2.23c-1-.67-1.43-2-2.85-2.07-1.18.64-2.2,0.13-3.22-.43a1.92,1.92,0,0,1-.83-2,3.61,3.61,0,0,1,1.84-1.29,33.71,33.71,0,0,1,5-.55A1.68,1.68,0,0,1-423,807.28Z" transform="translate(481.89 -755.45)"/><path class="cls-335" d="M-429.83,810.2l3.11,0.92-0.77,1.35-1.06.05-1.31-.81A1,1,0,0,1-429.83,810.2Z" transform="translate(481.89 -755.45)"/><path class="cls-336" d="M-423.88,813.19a2.42,2.42,0,0,1,1.56-2.23,1.46,1.46,0,0,1,.7,1.42Z" transform="translate(481.89 -755.45)"/><path class="cls-337" d="M-423,807.28l-0.88-.07a2.26,2.26,0,0,1-1.84-.68c-0.53-.86-1.22-1.66-1.09-2.78l1.52-1.77c1.62-.09,1.84,1.59,2.86,2.27q0,1.45.08,2.89l-0.31.15H-423Z" transform="translate(481.89 -755.45)"/><path class="cls-338" d="M-400.62,837.24l0.75,0C-400.14,837.8-400.38,837.78-400.62,837.24Z" transform="translate(481.89 -755.45)"/><path class="cls-339" d="M-398.37,787.72c-0.67.29-1.36,0.73-1.91-.17a0.94,0.94,0,0,1,.21-1.32c1-.71,1.07.65,1.7,0.79A2.74,2.74,0,0,1-398.37,787.72Z" transform="translate(481.89 -755.45)"/><path class="cls-220" d="M-396.77,787.75l1.47,0.83-0.17,1.36C-397,789.86-396.82,788.76-396.77,787.75Z" transform="translate(481.89 -755.45)"/><path class="cls-340" d="M-402.12,781.73l1.53-.71c-0.15.73,0.46,1.85-.78,2C-402.18,783.13-402.12,782.32-402.12,781.73Z" transform="translate(481.89 -755.45)"/><path class="cls-341" d="M-440.39,805.26l0,1.85c-1.53-.62-3.23-0.84-4.53-2a1,1,0,0,1,.87-0.91Z" transform="translate(481.89 -755.45)"/><path class="cls-117" d="M-444,804.21l-0.87.91a2.57,2.57,0,0,0-1.29.15,3.73,3.73,0,0,0-.59,1.37l-0.44-1.67a0.72,0.72,0,0,0,0-.72C-446.19,802.58-445.11,803.51-444,804.21Z" transform="translate(481.89 -755.45)"/><path class="cls-342" d="M-441.93,802c0.57,0.88,1.47.68,2.3,0.7,0.56,1.44-.91.89-1.34,1.35-1.26-.4-2.56-0.74-3.18-2.1Z" transform="translate(481.89 -755.45)"/><path class="cls-343" d="M-441,804.09l1.34-1.35a1.33,1.33,0,0,1,.65,0c1.05,1-.28,2,0.09,3l-0.73-.67A1.6,1.6,0,0,0-441,804.09Z" transform="translate(481.89 -755.45)"/><path class="cls-344" d="M-429.14,808l-1.47.8c-0.46.54-.13,1.88-1.51,1.47a1.77,1.77,0,0,0-1.67-.79,5.43,5.43,0,0,1,3.28-3.66c0.88-.74,1.41-0.28,1.83.54A1.71,1.71,0,0,1-429.14,808Z" transform="translate(481.89 -755.45)"/><path class="cls-345" d="M-426.79,803.75a2.54,2.54,0,0,1,1.23,2.75,1.47,1.47,0,0,1-1,.34c-1.24-.46-2.31-1.06-2-2.68A1.13,1.13,0,0,1-426.79,803.75Z" transform="translate(481.89 -755.45)"/><path class="cls-346" d="M-428.51,804.16l2.16,2.45c-0.42,1.26-.64,1.26-2.74,0a1.38,1.38,0,0,0-1.42-.79A1.81,1.81,0,0,1-428.51,804.16Z" transform="translate(481.89 -755.45)"/><path class="cls-347" d="M-435.74,804.35c-1-.51-0.13-1.11-0.09-1.67,0.58,0,1.27-.15,1.32.72S-435.19,804.21-435.74,804.35Z" transform="translate(481.89 -755.45)"/><path class="cls-348" d="M-442.61,840.26c2,0.76,4.72-1.72,6.08,1.49-0.93,1.89.1,4.08-.92,6-1.67-.24-3.36-0.43-5-0.73s-0.76-1.56-.88-2.41A7.9,7.9,0,0,1-442.61,840.26Z" transform="translate(481.89 -755.45)"/><path class="cls-349" d="M-446.2,838.1l1.33,0.65c-0.17,2.07-1.59,3.81-1.52,6,0,1.1-1.22,1-1.67.72-1.6-1.06-4.93-.13-4.44-3.69C-452.06,837.69-449.29,837.61-446.2,838.1Z" transform="translate(481.89 -755.45)"/><path class="cls-350" d="M-435.15,842.5c0.28-.83-0.16-2.12,1.37-2.17,1.28,0.19,2.67.09,3.55,1.35a8.57,8.57,0,0,1,1,1.09c0.39,0.72,1.21,1.13,1.46,2,0,0.78.69,1.9-.44,2.19-1.49.38-3,.17-3.39-2.77-0.63,2.18-.25,4.28-2.66,3.56A5,5,0,0,1-435.15,842.5Z" transform="translate(481.89 -755.45)"/><path class="cls-351" d="M-435.15,842.5c1.35,1.56.49,3.49,0.89,5.21h-3.19a2.85,2.85,0,0,0,.09-1.39c-2.8-2.13-.63-3.27.84-4.56Z" transform="translate(481.89 -755.45)"/><path class="cls-352" d="M-425.38,839.42l0.78,0.18c0.75,0.49,1.75.57,2.33,1.36a3,3,0,0,1,.78,1.14c0.08,1.19,2.43,2.48,0,3.55-2.67,1.18-1.34-1.78-2.31-2.49-0.44-.32,0-1.44-1.35-1.6C-427,841.35-426.26,840.27-425.38,839.42Z" transform="translate(481.89 -755.45)"/><path class="cls-353" d="M-417.12,847l3-1.51c2.48-.49,1.87,1.07,1.6,2.41C-414.28,848.77-416,849.6-417.12,847Z" transform="translate(481.89 -755.45)"/><path class="cls-354" d="M-439.6,850l8.95,0.14c-0.16,1.66-1.54,1.5-2.63,1.8-2.33-.29-4.78.31-7-0.95C-440.58,850.29-440.54,849.85-439.6,850Z" transform="translate(481.89 -755.45)"/><path class="cls-355" d="M-430.54,842.53c-1.05-.78-1.83-2-3.25-2.2l0.9-.73,3-.33,1.57-.33-0.08,1.41C-429.24,841-429.73,841.91-430.54,842.53Z" transform="translate(481.89 -755.45)"/><path class="cls-356" d="M-422.27,841a2.27,2.27,0,0,1-2.33-1.36l2.93-1.49C-419.75,839.51-421.63,840.11-422.27,841Z" transform="translate(481.89 -755.45)"/><path class="cls-357" d="M-447.89,848.51l-1.45,1.57c-1.66.56-2-.24-1.82-1.7C-450,846.41-449,848.92-447.89,848.51Z" transform="translate(481.89 -755.45)"/><path class="cls-358" d="M-430.54,842.53c-0.11-1.53,0-2.8,2.13-2.18v2.15a1.16,1.16,0,0,1-1.42.84Z" transform="translate(481.89 -755.45)"/><path class="cls-359" d="M-424.62,849.2l0.08,0.79a2.64,2.64,0,0,1-2.83.65,1.18,1.18,0,0,1-.94-1.34Z" transform="translate(481.89 -755.45)"/><path class="cls-360" d="M-441.06,850.71l-1.51-1.4c1.06-.06,2.22-0.6,3,0.68l-0.73.65A0.48,0.48,0,0,1-441.06,850.71Z" transform="translate(481.89 -755.45)"/><path class="cls-361" d="M-429.81,843.35l1.42-.84a2,2,0,0,1,.63,2.22Z" transform="translate(481.89 -755.45)"/><path class="cls-362" d="M-417,840.25c1.75,0.71.61,2,.63,3.07C-417.82,842.55-416.64,841.24-417,840.25Z" transform="translate(481.89 -755.45)"/><path class="cls-363" d="M-445.67,849.21H-446l-0.31,0,0.16-.56Z" transform="translate(481.89 -755.45)"/><path class="cls-364" d="M-444.82,849.28q-0.08.36-.16,0.72l-0.58-.75A2.45,2.45,0,0,1-444.82,849.28Z" transform="translate(481.89 -755.45)"/><path class="cls-365" d="M-436.57,826.84q3.07,2.05,0,4.33v-4.33Z" transform="translate(481.89 -755.45)"/><path class="cls-366" d="M-430.56,826.84c0.8-.1,1.4,0,1.4,1.05s-0.6,1.13-1.4,1v-2.06Z" transform="translate(481.89 -755.45)"/><path class="cls-367" d="M-432.13,810.26l1.51-1.47,0.78,1.41,0,1.51c-1.07.11-2.16,0.27-2.95-.75Z" transform="translate(481.89 -755.45)"/><path class="cls-228" d="M-429.1,806.6c0.91-.38,1.83,1,2.74,0l0.79-.1c0.63,0.09,1.33,0,1.71.71-1.58,1.54-3.53.51-5.29,0.77Z" transform="translate(481.89 -755.45)"/><path class="cls-368" d="M-448.26,842.5c0.26,0.55-.16.7-0.47,0.74a1,1,0,0,1-1.17-1.06c-0.06-.46,0-1.18.62-1A3.36,3.36,0,0,1-448.26,842.5Z" transform="translate(481.89 -755.45)"/></svg>